<?xml version="1.0" encoding="UTF-8" standalone="no"?>
<svg width="459px" height="234px" viewBox="0 0 459 234"
 xmlns="http://www.w3.org/2000/svg" xmlns:xlink="http://www.w3.org/1999/xlink" version="1.2" baseProfile="tiny">
<title>Sin título</title>
<desc>Generated by MuseScore 3.5.0</desc>
<polyline class="" fill="none" stroke="#000000" stroke-width="2.00" stroke-linejoin="bevel" points="3.27348,65.2955 790.348,65.2955"/>
<polyline class="" fill="none" stroke="#000000" stroke-width="2.00" stroke-linejoin="bevel" points="3.27348,90.2955 790.348,90.2955"/>
<polyline class="" fill="none" stroke="#000000" stroke-width="2.00" stroke-linejoin="bevel" points="3.27348,115.296 790.348,115.296"/>
<polyline class="" fill="none" stroke="#000000" stroke-width="2.00" stroke-linejoin="bevel" points="3.27348,140.296 790.348,140.296"/>
<polyline class="" fill="none" stroke="#000000" stroke-width="2.00" stroke-linejoin="bevel" points="3.27348,165.296 790.348,165.296"/>
<path class="" d="M59.9922,114.702 C59.9922,114.702 60.1901,114.702 60.586,114.702 C60.8464,114.639 61.0704,114.608 61.2579,114.608 C68.5495,114.608 74.5391,117.181 79.2266,122.327 C83.9141,127.4 86.2579,133.322 86.2579,140.092 C86.2579,148.499 82.7787,155.337 75.8204,160.608 C73.9974,162.046 71.6172,163.217 68.6797,164.124 C69.0131,168.353 69.1797,171.769 69.1797,174.374 C69.1797,174.894 69.112,176.785 68.9766,180.046 C68.7162,186.098 66.6329,191.337 62.7266,195.764 C58.9558,200.129 54.2683,202.311 48.6641,202.311 C43.3933,202.311 38.9037,200.457 35.1954,196.749 C31.4766,192.967 29.6172,188.41 29.6172,183.077 C29.6172,180.275 30.6954,177.894 32.8516,175.936 C35.0599,173.988 37.6276,173.014 40.5547,173.014 C43.1589,173.014 45.3412,174.025 47.1016,176.046 C48.9245,177.931 49.836,180.275 49.836,183.077 C49.836,185.608 48.9245,187.785 47.1016,189.608 C45.2787,191.431 43.0964,192.342 40.5547,192.342 C39.5131,192.342 38.5079,192.15 37.5391,191.764 C40.4037,195.993 44.211,198.108 48.961,198.108 C53.4506,198.108 57.1276,196.285 59.9922,192.639 C62.9922,188.868 64.6224,184.473 64.8829,179.452 C65.0079,176.327 65.0704,174.54 65.0704,174.092 C65.0704,170.447 64.9401,167.452 64.6797,165.108 C61.4297,165.629 58.5339,165.889 55.9922,165.889 C46.9401,165.889 39.2266,162.306 32.8516,155.139 C26.6016,147.91 23.4766,139.316 23.4766,129.358 C23.4766,127.275 23.6693,125.16 24.0547,123.014 C24.4506,121.254 24.9401,119.332 25.5235,117.249 C25.8464,116.072 26.7266,114.181 28.1641,111.577 C28.6849,110.796 29.2709,109.819 29.9219,108.647 C30.573,107.475 31.0287,106.697 31.2891,106.311 C31.9349,105.009 33.2006,103.249 35.086,101.03 C35.6068,100.447 36.1459,99.7981 36.7032,99.0846 C37.2605,98.371 37.7344,97.7851 38.125,97.3268 C38.5157,96.8684 38.8073,96.5091 39,96.2486 C39.1928,95.9882 40.6589,94.2643 43.3985,91.0768 C44.0443,90.4205 44.6771,89.72 45.2969,88.9752 C45.9167,88.2304 46.4219,87.6445 46.8125,87.2174 C47.2032,86.7903 47.4974,86.483 47.6954,86.2955 C45.3516,78.5455 43.8829,72.358 43.2891,67.733 C42.8412,64.0247 42.6172,58.9466 42.6172,52.4986 C42.6172,46.832 43.9193,41.5247 46.5235,36.5768 C49.0547,31.4413 52.6016,27.2434 57.1641,23.983 C57.4245,23.7851 57.7474,23.6861 58.1329,23.6861 C58.5912,23.6861 58.9193,23.7851 59.1172,23.983 C62.6276,28.2122 65.6537,33.7122 68.1954,40.483 C70.7995,47.2538 72.1016,53.4101 72.1016,58.9518 C72.1016,65.2018 70.6068,71.0611 67.6172,76.5299 C64.2318,82.3216 59.8672,88.3111 54.5235,94.4986 C55.8881,98.7903 57.711,105.525 59.9922,114.702 M68.2891,160.124 C71.6745,158.884 74.3151,156.769 76.211,153.78 C78.2943,150.915 79.336,147.691 79.336,144.108 C79.336,139.483 77.7735,135.379 74.6485,131.796 C71.4506,128.087 67.3776,126.004 62.4297,125.546 C65.2318,139.285 67.1849,150.811 68.2891,160.124 M30.5079,137.561 C30.5079,144.009 33.112,149.676 38.3204,154.561 C43.6537,159.311 49.6433,161.686 56.2891,161.686 C59.0183,161.686 61.6849,161.488 64.2891,161.092 C63.2474,151.197 61.1954,139.348 58.1329,125.546 C54.4245,125.941 51.4662,127.243 49.2579,129.452 C47.1016,131.733 46.0235,134.306 46.0235,137.171 C46.0235,142.118 48.6641,146.124 53.9454,149.186 C54.3933,149.644 54.6172,150.134 54.6172,150.655 C54.6172,151.176 54.3933,151.66 53.9454,152.108 C53.5495,152.566 53.0599,152.796 52.4766,152.796 C52.4141,152.796 52.1224,152.733 51.6016,152.608 C47.8829,150.587 45.0183,147.983 43.0079,144.796 C41.112,141.4 40.1641,137.978 40.1641,134.53 C40.1641,130.04 41.5651,125.973 44.3672,122.327 C47.2943,118.681 51.1016,116.337 55.7891,115.296 C53.9662,108.004 52.4714,102.306 51.3047,98.2018 C50.2631,99.3788 49.0105,100.796 47.5469,102.452 C46.0834,104.108 45.2214,105.103 44.961,105.436 C42.6172,108.488 40.8256,110.863 39.586,112.561 C37.3672,115.624 35.737,118.259 34.6954,120.467 C33.5912,122.947 32.6172,125.65 31.7735,128.577 C30.9297,131.379 30.5079,134.374 30.5079,137.561 M63.1172,38.2486 C58.2318,40.6549 54.3933,44.1028 51.6016,48.5924 C48.737,53.2174 47.3047,58.1966 47.3047,63.5299 C47.3047,68.2174 48.4766,74.5351 50.8204,82.483 C55.5079,76.8163 59.0235,71.5768 61.3672,66.7643 C63.836,61.6809 65.0704,56.3736 65.0704,50.8424 C65.0704,46.6757 64.4193,42.4778 63.1172,38.2486"/>
<path class="" d="M147.148,112.561 C145.461,112.561 143.768,111.91 142.07,110.608 C140.445,109.368 139.633,107.546 139.633,105.139 C139.633,103.118 140.315,101.327 141.68,99.7643 C142.982,98.2018 144.706,97.4205 146.852,97.4205 C147.57,97.4205 148.029,97.4518 148.227,97.5143 C145.227,93.6809 141.221,91.6966 136.211,91.5611 C132.44,91.5611 129.576,92.6341 127.617,94.7799 C126.971,95.6341 126.388,97.0038 125.867,98.8893 C125.346,100.775 125.086,102.467 125.086,103.967 C124.951,105.009 124.883,107.092 124.883,110.217 L124.883,120.374 C124.883,123.499 124.951,125.613 125.086,126.717 C125.346,130.957 126.19,133.988 127.617,135.811 C129.638,138.019 132.503,139.124 136.211,139.124 C140.117,139.124 143.44,137.691 146.18,134.827 C148.971,132.025 150.925,128.41 152.039,123.983 C152.227,123.337 152.617,123.014 153.211,123.014 C154.055,123.014 154.477,123.405 154.477,124.186 C154.477,124.644 154.279,125.525 153.883,126.827 C152.977,129.754 151.19,132.842 148.523,136.092 C145.326,139.738 141.221,141.561 136.211,141.561 C133.284,141.561 130.289,141.139 127.227,140.296 C124.237,139.254 121.602,137.822 119.32,135.999 C116.779,133.978 114.794,131.243 113.367,127.796 C111.93,124.025 111.211,119.858 111.211,115.296 C111.211,107.348 113.362,101.03 117.664,96.3424 C121.831,91.5299 128.013,89.1236 136.211,89.1236 C141.555,89.1236 145.789,90.9466 148.914,94.5924 C152.164,98.2382 153.789,101.853 153.789,105.436 C153.789,107.519 153.138,109.212 151.836,110.514 C150.669,111.879 149.107,112.561 147.148,112.561"/>
<path class="" d="M206.227,107.483 C206.227,106.306 206.883,105.004 208.195,103.577 C209.164,102.535 210.596,101.296 212.492,99.858 C213.919,98.8893 215.315,97.4257 216.68,95.4674 C217.982,93.582 218.633,91.5299 218.633,89.3111 C218.633,86.707 217.789,84.3997 216.102,82.3893 L212.586,78.1861 C212.326,77.9257 212.195,77.6002 212.195,77.2096 C212.195,76.8189 212.388,76.4622 212.773,76.1393 C213.232,75.8059 213.622,75.6393 213.945,75.6393 C214.404,75.6393 214.763,75.8372 215.023,76.233 L230.164,94.2018 C230.81,95.0455 231.133,95.8893 231.133,96.733 C231.133,97.9101 230.482,99.2122 229.18,100.639 C228.336,101.556 226.94,102.796 224.992,104.358 C223.492,105.264 222.06,106.728 220.695,108.749 C219.393,110.634 218.742,112.686 218.742,114.905 C218.742,117.644 219.523,119.957 221.086,121.842 L229.477,131.702 C229.675,131.9 229.836,132.228 229.961,132.686 C229.961,133.134 229.8,133.525 229.477,133.858 C229.018,134.181 228.628,134.342 228.305,134.342 C228.18,134.342 227.659,133.983 226.742,133.264 C225.763,132.483 224.461,131.733 222.836,131.014 C221.013,130.306 219.221,129.952 217.461,129.952 C215.836,129.952 214.503,130.405 213.461,131.311 C212.555,132.228 212.102,133.988 212.102,136.592 C212.102,140.561 213.044,143.686 214.93,145.967 C215.128,146.228 215.159,146.551 215.023,146.936 C214.898,147.197 214.669,147.327 214.336,147.327 C213.888,147.327 212.883,146.155 211.32,143.811 C209.685,141.342 208.154,138.509 206.727,135.311 C205.227,131.926 204.477,129.129 204.477,126.921 C204.477,124.118 205.81,122.717 208.477,122.717 C211.539,122.717 215.513,123.759 220.398,125.842 L207.211,110.014 C206.555,109.171 206.227,108.327 206.227,107.483"/>
</svg>
