<?xml version="1.0" encoding="UTF-8" standalone="no"?>
<svg width="532px" height="279px" viewBox="0 0 532 279"
 xmlns="http://www.w3.org/2000/svg" xmlns:xlink="http://www.w3.org/1999/xlink" version="1.2" baseProfile="tiny">
<title>Sin título</title>
<desc>Generated by MuseScore 3.5.0</desc>
<polyline class="" fill="none" stroke="#000000" stroke-width="2.00" stroke-linejoin="bevel" points="48.0733,90.3672 734.544,90.3672"/>
<polyline class="" fill="none" stroke="#000000" stroke-width="2.00" stroke-linejoin="bevel" points="48.0733,115.367 734.544,115.367"/>
<polyline class="" fill="none" stroke="#000000" stroke-width="2.00" stroke-linejoin="bevel" points="48.0733,140.367 734.544,140.367"/>
<polyline class="" fill="none" stroke="#000000" stroke-width="2.00" stroke-linejoin="bevel" points="48.0733,165.367 734.544,165.367"/>
<polyline class="" fill="none" stroke="#000000" stroke-width="2.00" stroke-linejoin="bevel" points="48.0733,190.367 734.544,190.367"/>
<path class="" d="M253.378,65.3672 C254.222,64.9089 255.068,64.6797 255.917,64.6797 C256.766,64.6797 257.612,64.9089 258.456,65.3672 L258.159,83.6329 L268.815,81.6797 L269.206,81.6797 C270.373,81.6797 270.956,82.2318 270.956,83.336 L271.644,140.367 C270.8,140.826 269.953,141.055 269.105,141.055 C268.256,141.055 267.409,140.826 266.565,140.367 L266.862,122.102 L256.315,124.055 L255.925,124.055 C254.748,124.055 254.159,123.503 254.159,122.398 L253.378,65.3672 M266.956,112.336 L267.253,91.6329 L258.065,93.3985 L257.769,114.102 L266.956,112.336 "/>
<path class="" d="M298.534,91.6329 C296.19,91.6329 294.498,92.4454 293.456,94.0704 C292.289,95.6329 291.706,97.7526 291.706,100.43 C291.706,103.492 292.519,106.128 294.144,108.336 C295.769,110.482 297.56,111.982 299.519,112.836 C301.269,113.68 303.123,114.102 305.081,114.102 C307.362,114.102 309.086,113.289 310.253,111.664 C311.357,110.029 311.909,107.909 311.909,105.305 C311.909,102.242 311.097,99.6068 309.472,97.3985 C307.847,95.3151 306.092,93.8151 304.206,92.8985 C302.31,92.0547 300.42,91.6329 298.534,91.6329 M301.862,89.1016 C308.894,89.1016 314.753,90.4662 319.44,93.1954 C324.19,95.9349 326.565,99.1589 326.565,102.867 C326.565,106.836 324.123,110.091 319.237,112.633 C314.352,115.3 308.56,116.633 301.862,116.633 C294.956,116.633 289.097,115.268 284.284,112.539 C279.461,109.8 277.05,106.576 277.05,102.867 C277.05,98.8985 279.524,95.6433 284.472,93.1016 C289.357,90.4349 295.154,89.1016 301.862,89.1016"/>
<path class="" d="M126.48,106.477 C125.506,105.497 125.019,104.292 125.019,102.859 C125.019,101.427 125.506,100.224 126.48,99.25 C127.453,98.2761 128.657,97.7891 130.089,97.7891 C131.521,97.7891 132.727,98.2761 133.706,99.25 C134.685,100.224 135.175,101.427 135.175,102.859 C135.175,104.292 134.685,105.497 133.706,106.477 C132.727,107.456 131.521,107.945 130.089,107.945 C128.657,107.945 127.453,107.456 126.48,106.477 M126.48,131.484 C125.506,130.51 125.019,129.307 125.019,127.875 C125.019,126.443 125.506,125.237 126.48,124.258 C127.453,123.279 128.657,122.789 130.089,122.789 C131.521,122.789 132.727,123.279 133.706,124.258 C134.685,125.237 135.175,126.443 135.175,127.875 C135.175,129.307 134.685,130.51 133.706,131.484 C132.727,132.458 131.521,132.945 130.089,132.945 C128.657,132.945 127.453,132.458 126.48,131.484 M92.5967,89.1016 C101.253,89.1016 108.347,91.2787 113.878,95.6329 C119.222,100.195 121.894,106.383 121.894,114.195 C121.894,119.466 120.852,124.284 118.769,128.648 C116.81,133.211 114.237,137.247 111.05,140.758 C107.789,144.341 103.852,147.727 99.2373,150.914 C94.7373,154.039 90.1123,156.841 85.3623,159.32 C75.6644,164.195 70.3259,166.633 69.3467,166.633 C68.503,166.633 68.0811,166.211 68.0811,165.367 C68.0811,165.044 68.2113,164.753 68.4717,164.492 C71.7946,162.534 75.8623,160.029 80.6748,156.977 C83.7998,154.956 87.4457,152.154 91.6123,148.57 C95.654,145.185 98.779,141.997 100.987,139.008 C103.269,136.07 105.352,132.425 107.237,128.07 C108.862,123.706 109.675,119.404 109.675,115.164 C109.675,108.852 108.112,103.352 104.987,98.6641 C101.862,93.9766 97.7321,91.6329 92.5967,91.6329 C88.9509,91.6329 85.8259,92.8047 83.2217,95.1485 C80.4196,97.5547 78.3988,100.581 77.1592,104.227 C78.3988,103.706 79.5394,103.445 80.5811,103.445 C83.3103,103.445 85.654,104.425 87.6123,106.383 C89.5603,108.466 90.5342,110.841 90.5342,113.508 C90.5342,116.31 89.5915,118.82 87.7061,121.039 C85.6853,123.05 83.3103,124.055 80.5811,124.055 C77.654,124.055 75.0186,123.05 72.6748,121.039 C70.4561,118.82 69.3467,116.31 69.3467,113.508 C69.3467,106.8 71.628,101.07 76.1905,96.3204 C80.6801,91.5079 86.1488,89.1016 92.5967,89.1016"/>
<path class="" d="M195.94,137.633 C194.253,137.633 192.56,136.982 190.862,135.68 C189.237,134.44 188.425,132.617 188.425,130.211 C188.425,128.19 189.107,126.398 190.472,124.836 C191.774,123.273 193.498,122.492 195.644,122.492 C196.362,122.492 196.821,122.523 197.019,122.586 C194.019,118.753 190.013,116.768 185.003,116.633 C181.232,116.633 178.368,117.706 176.409,119.852 C175.763,120.706 175.18,122.076 174.659,123.961 C174.138,125.846 173.878,127.539 173.878,129.039 C173.743,130.081 173.675,132.164 173.675,135.289 L173.675,145.445 C173.675,148.57 173.743,150.685 173.878,151.789 C174.138,156.029 174.982,159.06 176.409,160.883 C178.43,163.091 181.295,164.195 185.003,164.195 C188.909,164.195 192.232,162.763 194.972,159.898 C197.763,157.096 199.717,153.482 200.831,149.055 C201.019,148.409 201.409,148.086 202.003,148.086 C202.847,148.086 203.269,148.477 203.269,149.258 C203.269,149.716 203.071,150.596 202.675,151.898 C201.769,154.826 199.982,157.914 197.315,161.164 C194.118,164.81 190.013,166.633 185.003,166.633 C182.076,166.633 179.081,166.211 176.019,165.367 C173.029,164.326 170.394,162.893 168.112,161.07 C165.571,159.05 163.586,156.315 162.159,152.867 C160.722,149.096 160.003,144.93 160.003,140.367 C160.003,132.419 162.154,126.102 166.456,121.414 C170.623,116.602 176.805,114.195 185.003,114.195 C190.347,114.195 194.581,116.018 197.706,119.664 C200.956,123.31 202.581,126.925 202.581,130.508 C202.581,132.591 201.93,134.284 200.628,135.586 C199.461,136.951 197.899,137.633 195.94,137.633"/>
</svg>
