<?xml version="1.0" encoding="UTF-8" standalone="no"?>
<svg width="532px" height="284px" viewBox="0 0 532 284"
 xmlns="http://www.w3.org/2000/svg" xmlns:xlink="http://www.w3.org/1999/xlink" version="1.2" baseProfile="tiny">
<title>Sin título</title>
<desc>Generated by MuseScore 3.5.0</desc>
<polyline class="" fill="none" stroke="#000000" stroke-width="2.00" stroke-linejoin="bevel" points="32.2372,90.8426 740.645,90.8426"/>
<polyline class="" fill="none" stroke="#000000" stroke-width="2.00" stroke-linejoin="bevel" points="32.2372,115.843 740.645,115.843"/>
<polyline class="" fill="none" stroke="#000000" stroke-width="2.00" stroke-linejoin="bevel" points="32.2372,140.843 740.645,140.843"/>
<polyline class="" fill="none" stroke="#000000" stroke-width="2.00" stroke-linejoin="bevel" points="32.2372,165.843 740.645,165.843"/>
<polyline class="" fill="none" stroke="#000000" stroke-width="2.00" stroke-linejoin="bevel" points="32.2372,190.843 740.645,190.843"/>
<path class="" d="M233.55,178.343 C234.393,177.884 235.24,177.655 236.089,177.655 C236.938,177.655 237.784,177.884 238.628,178.343 L238.331,196.608 L248.987,194.655 L249.378,194.655 C250.545,194.655 251.128,195.207 251.128,196.311 L251.815,253.343 C250.972,253.801 250.125,254.03 249.276,254.03 C248.427,254.03 247.581,253.801 246.737,253.343 L247.034,235.077 L236.487,237.03 L236.097,237.03 C234.92,237.03 234.331,236.478 234.331,235.374 L233.55,178.343 M247.128,225.311 L247.425,204.608 L238.237,206.374 L237.94,227.077 L247.128,225.311 "/>
<polyline class="" fill="none" stroke="#000000" stroke-width="4.00" stroke-linecap="square" stroke-linejoin="bevel" points="254.722,215.843 319.237,215.843"/>
<path class="" d="M283.706,204.608 C281.362,204.608 279.67,205.421 278.628,207.046 C277.461,208.608 276.878,210.728 276.878,213.405 C276.878,216.468 277.69,219.103 279.315,221.311 C280.94,223.457 282.732,224.957 284.69,225.811 C286.44,226.655 288.295,227.077 290.253,227.077 C292.534,227.077 294.258,226.265 295.425,224.64 C296.529,223.004 297.081,220.884 297.081,218.28 C297.081,215.218 296.268,212.582 294.643,210.374 C293.018,208.291 291.263,206.791 289.378,205.874 C287.482,205.03 285.591,204.608 283.706,204.608 M287.034,202.077 C294.065,202.077 299.925,203.442 304.612,206.171 C309.362,208.91 311.737,212.134 311.737,215.843 C311.737,219.811 309.295,223.067 304.409,225.608 C299.524,228.275 293.732,229.608 287.034,229.608 C280.128,229.608 274.268,228.244 269.456,225.515 C264.633,222.775 262.222,219.551 262.222,215.843 C262.222,211.874 264.696,208.619 269.643,206.077 C274.529,203.41 280.326,202.077 287.034,202.077"/>
<path class="" d="M88.956,140.249 C88.956,140.249 89.1539,140.249 89.5497,140.249 C89.8101,140.186 90.0341,140.155 90.2216,140.155 C97.5133,140.155 103.503,142.728 108.19,147.874 C112.878,152.947 115.222,158.869 115.222,165.64 C115.222,174.046 111.742,180.884 104.784,186.155 C102.961,187.593 100.581,188.765 97.6435,189.671 C97.9768,193.9 98.1435,197.317 98.1435,199.921 C98.1435,200.442 98.0758,202.332 97.9403,205.593 C97.6799,211.645 95.5966,216.884 91.6903,221.311 C87.9195,225.676 83.232,227.858 77.6278,227.858 C72.357,227.858 67.8674,226.004 64.1591,222.296 C60.4403,218.515 58.581,213.957 58.581,208.624 C58.581,205.822 59.6591,203.442 61.8153,201.483 C64.0237,199.535 66.5914,198.561 69.5185,198.561 C72.1226,198.561 74.3049,199.572 76.0653,201.593 C77.8883,203.478 78.7997,205.822 78.7997,208.624 C78.7997,211.155 77.8883,213.332 76.0653,215.155 C74.2424,216.978 72.0601,217.89 69.5185,217.89 C68.4768,217.89 67.4716,217.697 66.5028,217.311 C69.3674,221.541 73.1747,223.655 77.9247,223.655 C82.4143,223.655 86.0914,221.832 88.956,218.186 C91.956,214.416 93.5862,210.02 93.8466,204.999 C93.9716,201.874 94.0341,200.087 94.0341,199.64 C94.0341,195.994 93.9039,192.999 93.6435,190.655 C90.3935,191.176 87.4976,191.436 84.956,191.436 C75.9039,191.436 68.1903,187.853 61.8153,180.686 C55.5653,173.457 52.4403,164.863 52.4403,154.905 C52.4403,152.822 52.6331,150.707 53.0185,148.561 C53.4143,146.801 53.9039,144.879 54.4872,142.796 C54.8101,141.619 55.6903,139.728 57.1278,137.124 C57.6487,136.343 58.2346,135.366 58.8857,134.194 C59.5367,133.022 59.9924,132.244 60.2528,131.858 C60.8987,130.556 62.1643,128.796 64.0497,126.577 C64.5706,125.994 65.1096,125.345 65.6669,124.632 C66.2242,123.918 66.6982,123.332 67.0888,122.874 C67.4794,122.416 67.7711,122.056 67.9638,121.796 C68.1565,121.535 69.6226,119.811 72.3622,116.624 C73.0081,115.968 73.6409,115.267 74.2607,114.522 C74.8805,113.778 75.3857,113.192 75.7763,112.765 C76.1669,112.337 76.4612,112.03 76.6591,111.843 C74.3153,104.093 72.8466,97.9051 72.2528,93.2801 C71.8049,89.5718 71.581,84.4937 71.581,78.0458 C71.581,72.3791 72.8831,67.0718 75.4872,62.1239 C78.0185,56.9885 81.5653,52.7906 86.1278,49.5301 C86.3883,49.3322 86.7112,49.2333 87.0966,49.2333 C87.5549,49.2333 87.8831,49.3322 88.081,49.5301 C91.5914,53.7593 94.6174,59.2593 97.1591,66.0301 C99.7633,72.801 101.065,78.9572 101.065,84.4989 C101.065,90.7489 99.5706,96.6083 96.581,102.077 C93.1956,107.869 88.831,113.858 83.4872,120.046 C84.8518,124.337 86.6747,131.072 88.956,140.249 M97.2528,185.671 C100.638,184.431 103.279,182.317 105.175,179.327 C107.258,176.462 108.3,173.238 108.3,169.655 C108.3,165.03 106.737,160.926 103.612,157.343 C100.414,153.634 96.3414,151.551 91.3935,151.093 C94.1956,164.832 96.1487,176.358 97.2528,185.671 M59.4716,163.108 C59.4716,169.556 62.0758,175.223 67.2841,180.108 C72.6174,184.858 78.607,187.233 85.2528,187.233 C87.982,187.233 90.6487,187.035 93.2528,186.64 C92.2112,176.744 90.1591,164.895 87.0966,151.093 C83.3883,151.488 80.4299,152.791 78.2216,154.999 C76.0653,157.28 74.9872,159.853 74.9872,162.718 C74.9872,167.666 77.6278,171.671 82.9091,174.733 C83.357,175.192 83.581,175.681 83.581,176.202 C83.581,176.723 83.357,177.207 82.9091,177.655 C82.5133,178.113 82.0237,178.343 81.4403,178.343 C81.3778,178.343 81.0862,178.28 80.5653,178.155 C76.8466,176.134 73.982,173.53 71.9716,170.343 C70.0758,166.947 69.1278,163.525 69.1278,160.077 C69.1278,155.587 70.5289,151.52 73.331,147.874 C76.2581,144.228 80.0653,141.884 84.7528,140.843 C82.9299,133.551 81.4351,127.853 80.2685,123.749 C79.2268,124.926 77.9742,126.343 76.5107,127.999 C75.0471,129.655 74.1851,130.65 73.9247,130.983 C71.581,134.035 69.7893,136.41 68.5497,138.108 C66.331,141.171 64.7008,143.806 63.6591,146.015 C62.5549,148.494 61.581,151.197 60.7372,154.124 C59.8935,156.926 59.4716,159.921 59.4716,163.108 M92.081,63.7958 C87.1956,66.202 83.357,69.6499 80.5653,74.1395 C77.7008,78.7645 76.2685,83.7437 76.2685,89.077 C76.2685,93.7645 77.4403,100.082 79.7841,108.03 C84.4716,102.363 87.9872,97.1239 90.331,92.3114 C92.7997,87.2281 94.0341,81.9208 94.0341,76.3895 C94.0341,72.2228 93.3831,68.0249 92.081,63.7958"/>
<path class="" d="M176.112,138.108 C174.425,138.108 172.732,137.457 171.034,136.155 C169.409,134.916 168.597,133.093 168.597,130.686 C168.597,128.666 169.279,126.874 170.643,125.311 C171.946,123.749 173.67,122.968 175.815,122.968 C176.534,122.968 176.992,122.999 177.19,123.061 C174.19,119.228 170.185,117.244 165.175,117.108 C161.404,117.108 158.539,118.181 156.581,120.327 C155.935,121.181 155.352,122.551 154.831,124.436 C154.31,126.322 154.05,128.015 154.05,129.515 C153.914,130.556 153.847,132.64 153.847,135.765 L153.847,145.921 C153.847,149.046 153.914,151.16 154.05,152.265 C154.31,156.504 155.154,159.535 156.581,161.358 C158.602,163.567 161.466,164.671 165.175,164.671 C169.081,164.671 172.404,163.238 175.143,160.374 C177.935,157.572 179.888,153.957 181.003,149.53 C181.19,148.884 181.581,148.561 182.175,148.561 C183.018,148.561 183.44,148.952 183.44,149.733 C183.44,150.192 183.242,151.072 182.847,152.374 C181.94,155.301 180.154,158.39 177.487,161.64 C174.289,165.285 170.185,167.108 165.175,167.108 C162.248,167.108 159.253,166.686 156.19,165.843 C153.201,164.801 150.565,163.369 148.284,161.546 C145.742,159.525 143.758,156.791 142.331,153.343 C140.893,149.572 140.175,145.405 140.175,140.843 C140.175,132.895 142.326,126.577 146.628,121.89 C150.795,117.077 156.977,114.671 165.175,114.671 C170.518,114.671 174.753,116.494 177.878,120.14 C181.128,123.785 182.753,127.4 182.753,130.983 C182.753,133.067 182.102,134.759 180.8,136.061 C179.633,137.426 178.071,138.108 176.112,138.108"/>
</svg>
