<?xml version="1.0" encoding="UTF-8" standalone="no"?>
<svg width="532px" height="284px" viewBox="0 0 532 284"
 xmlns="http://www.w3.org/2000/svg" xmlns:xlink="http://www.w3.org/1999/xlink" version="1.2" baseProfile="tiny">
<title>Sin título</title>
<desc>Generated by MuseScore 3.5.0</desc>
<polyline class="" fill="none" stroke="#000000" stroke-width="2.00" stroke-linejoin="bevel" points="59.3848,90.8426 757.793,90.8426"/>
<polyline class="" fill="none" stroke="#000000" stroke-width="2.00" stroke-linejoin="bevel" points="59.3848,115.843 757.793,115.843"/>
<polyline class="" fill="none" stroke="#000000" stroke-width="2.00" stroke-linejoin="bevel" points="59.3848,140.843 757.793,140.843"/>
<polyline class="" fill="none" stroke="#000000" stroke-width="2.00" stroke-linejoin="bevel" points="59.3848,165.843 757.793,165.843"/>
<polyline class="" fill="none" stroke="#000000" stroke-width="2.00" stroke-linejoin="bevel" points="59.3848,190.843 757.793,190.843"/>
<path class="" d="M260.697,115.843 C261.541,115.384 262.387,115.155 263.236,115.155 C264.085,115.155 264.932,115.384 265.775,115.843 L265.479,134.108 L276.135,132.155 L276.525,132.155 C277.692,132.155 278.275,132.707 278.275,133.811 L278.963,190.843 C278.119,191.301 277.273,191.53 276.424,191.53 C275.575,191.53 274.729,191.301 273.885,190.843 L274.182,172.577 L263.635,174.53 L263.244,174.53 C262.067,174.53 261.479,173.978 261.479,172.874 L260.697,115.843 M274.275,162.811 L274.572,142.108 L265.385,143.874 L265.088,164.577 L274.275,162.811 "/>
<path class="" d="M305.854,142.108 C303.51,142.108 301.817,142.921 300.775,144.546 C299.609,146.108 299.025,148.228 299.025,150.905 C299.025,153.968 299.838,156.603 301.463,158.811 C303.088,160.957 304.88,162.457 306.838,163.311 C308.588,164.155 310.442,164.577 312.4,164.577 C314.682,164.577 316.406,163.765 317.572,162.14 C318.676,160.504 319.229,158.384 319.229,155.78 C319.229,152.718 318.416,150.082 316.791,147.874 C315.166,145.791 313.411,144.291 311.525,143.374 C309.63,142.53 307.739,142.108 305.854,142.108 M309.182,139.577 C316.213,139.577 322.072,140.942 326.76,143.671 C331.51,146.41 333.885,149.634 333.885,153.343 C333.885,157.311 331.442,160.567 326.557,163.108 C321.671,165.775 315.88,167.108 309.182,167.108 C302.275,167.108 296.416,165.744 291.604,163.015 C286.781,160.275 284.369,157.051 284.369,153.343 C284.369,149.374 286.843,146.119 291.791,143.577 C296.676,140.91 302.473,139.577 309.182,139.577"/>
<path class="" d="M116.104,140.249 C116.104,140.249 116.301,140.249 116.697,140.249 C116.958,140.186 117.182,140.155 117.369,140.155 C124.661,140.155 130.65,142.728 135.338,147.874 C140.025,152.947 142.369,158.869 142.369,165.64 C142.369,174.046 138.89,180.884 131.932,186.155 C130.109,187.593 127.729,188.765 124.791,189.671 C125.124,193.9 125.291,197.317 125.291,199.921 C125.291,200.442 125.223,202.332 125.088,205.593 C124.827,211.645 122.744,216.884 118.838,221.311 C115.067,225.676 110.38,227.858 104.775,227.858 C99.5046,227.858 95.015,226.004 91.3066,222.296 C87.5879,218.515 85.7285,213.957 85.7285,208.624 C85.7285,205.822 86.8066,203.442 88.9629,201.483 C91.1712,199.535 93.7389,198.561 96.666,198.561 C99.2702,198.561 101.452,199.572 103.213,201.593 C105.036,203.478 105.947,205.822 105.947,208.624 C105.947,211.155 105.036,213.332 103.213,215.155 C101.39,216.978 99.2077,217.89 96.666,217.89 C95.6243,217.89 94.6191,217.697 93.6504,217.311 C96.515,221.541 100.322,223.655 105.072,223.655 C109.562,223.655 113.239,221.832 116.104,218.186 C119.104,214.416 120.734,210.02 120.994,204.999 C121.119,201.874 121.182,200.087 121.182,199.64 C121.182,195.994 121.051,192.999 120.791,190.655 C117.541,191.176 114.645,191.436 112.104,191.436 C103.051,191.436 95.3379,187.853 88.9629,180.686 C82.7129,173.457 79.5879,164.863 79.5879,154.905 C79.5879,152.822 79.7806,150.707 80.166,148.561 C80.5618,146.801 81.0514,144.879 81.6348,142.796 C81.9577,141.619 82.8379,139.728 84.2754,137.124 C84.7962,136.343 85.3822,135.366 86.0332,134.194 C86.6842,133.022 87.14,132.244 87.4004,131.858 C88.0462,130.556 89.3118,128.796 91.1973,126.577 C91.7181,125.994 92.2572,125.345 92.8144,124.632 C93.3717,123.918 93.8457,123.332 94.2363,122.874 C94.6269,122.416 94.9186,122.056 95.1113,121.796 C95.304,121.535 96.7702,119.811 99.5098,116.624 C100.156,115.968 100.788,115.267 101.408,114.522 C102.028,113.778 102.533,113.192 102.924,112.765 C103.314,112.337 103.609,112.03 103.807,111.843 C101.463,104.093 99.9941,97.9051 99.4004,93.2801 C98.9525,89.5718 98.7285,84.4937 98.7285,78.0458 C98.7285,72.3791 100.031,67.0718 102.635,62.1239 C105.166,56.9885 108.713,52.7906 113.275,49.5301 C113.536,49.3322 113.859,49.2333 114.244,49.2333 C114.702,49.2333 115.031,49.3322 115.229,49.5301 C118.739,53.7593 121.765,59.2593 124.307,66.0301 C126.911,72.801 128.213,78.9572 128.213,84.4989 C128.213,90.7489 126.718,96.6083 123.729,102.077 C120.343,107.869 115.979,113.858 110.635,120.046 C111.999,124.337 113.822,131.072 116.104,140.249 M124.4,185.671 C127.786,184.431 130.426,182.317 132.322,179.327 C134.406,176.462 135.447,173.238 135.447,169.655 C135.447,165.03 133.885,160.926 130.76,157.343 C127.562,153.634 123.489,151.551 118.541,151.093 C121.343,164.832 123.296,176.358 124.4,185.671 M86.6191,163.108 C86.6191,169.556 89.2233,175.223 94.4316,180.108 C99.765,184.858 105.755,187.233 112.4,187.233 C115.13,187.233 117.796,187.035 120.4,186.64 C119.359,176.744 117.307,164.895 114.244,151.093 C110.536,151.488 107.577,152.791 105.369,154.999 C103.213,157.28 102.135,159.853 102.135,162.718 C102.135,167.666 104.775,171.671 110.057,174.733 C110.505,175.192 110.729,175.681 110.729,176.202 C110.729,176.723 110.505,177.207 110.057,177.655 C109.661,178.113 109.171,178.343 108.588,178.343 C108.525,178.343 108.234,178.28 107.713,178.155 C103.994,176.134 101.13,173.53 99.1191,170.343 C97.2233,166.947 96.2754,163.525 96.2754,160.077 C96.2754,155.587 97.6764,151.52 100.479,147.874 C103.406,144.228 107.213,141.884 111.9,140.843 C110.077,133.551 108.583,127.853 107.416,123.749 C106.374,124.926 105.122,126.343 103.658,127.999 C102.195,129.655 101.333,130.65 101.072,130.983 C98.7285,134.035 96.9368,136.41 95.6973,138.108 C93.4785,141.171 91.8483,143.806 90.8066,146.015 C89.7025,148.494 88.7285,151.197 87.8848,154.124 C87.041,156.926 86.6191,159.921 86.6191,163.108 M119.229,63.7958 C114.343,66.202 110.505,69.6499 107.713,74.1395 C104.848,78.7645 103.416,83.7437 103.416,89.077 C103.416,93.7645 104.588,100.082 106.932,108.03 C111.619,102.363 115.135,97.1239 117.479,92.3114 C119.947,87.2281 121.182,81.9208 121.182,76.3895 C121.182,72.2228 120.531,68.0249 119.229,63.7958"/>
<path class="" d="M203.26,138.108 C201.572,138.108 199.88,137.457 198.182,136.155 C196.557,134.916 195.744,133.093 195.744,130.686 C195.744,128.666 196.426,126.874 197.791,125.311 C199.093,123.749 200.817,122.968 202.963,122.968 C203.682,122.968 204.14,122.999 204.338,123.061 C201.338,119.228 197.333,117.244 192.322,117.108 C188.551,117.108 185.687,118.181 183.729,120.327 C183.083,121.181 182.499,122.551 181.979,124.436 C181.458,126.322 181.197,128.015 181.197,129.515 C181.062,130.556 180.994,132.64 180.994,135.765 L180.994,145.921 C180.994,149.046 181.062,151.16 181.197,152.265 C181.458,156.504 182.301,159.535 183.729,161.358 C185.749,163.567 188.614,164.671 192.322,164.671 C196.229,164.671 199.551,163.238 202.291,160.374 C205.083,157.572 207.036,153.957 208.15,149.53 C208.338,148.884 208.729,148.561 209.322,148.561 C210.166,148.561 210.588,148.952 210.588,149.733 C210.588,150.192 210.39,151.072 209.994,152.374 C209.088,155.301 207.301,158.39 204.635,161.64 C201.437,165.285 197.333,167.108 192.322,167.108 C189.395,167.108 186.4,166.686 183.338,165.843 C180.348,164.801 177.713,163.369 175.432,161.546 C172.89,159.525 170.906,156.791 169.479,153.343 C168.041,149.572 167.322,145.405 167.322,140.843 C167.322,132.895 169.473,126.577 173.775,121.89 C177.942,117.077 184.124,114.671 192.322,114.671 C197.666,114.671 201.9,116.494 205.025,120.14 C208.275,123.785 209.9,127.4 209.9,130.983 C209.9,133.067 209.249,134.759 207.947,136.061 C206.781,137.426 205.218,138.108 203.26,138.108"/>
</svg>
