<?xml version="1.0" encoding="UTF-8" standalone="no"?>
<svg width="532px" height="279px" viewBox="0 0 532 279"
 xmlns="http://www.w3.org/2000/svg" xmlns:xlink="http://www.w3.org/1999/xlink" version="1.2" baseProfile="tiny">
<title>Sin título</title>
<desc>Generated by MuseScore 3.5.0</desc>
<polyline class="" fill="none" stroke="#000000" stroke-width="2.00" stroke-linejoin="bevel" points="48.0733,90.3672 764.465,90.3672"/>
<polyline class="" fill="none" stroke="#000000" stroke-width="2.00" stroke-linejoin="bevel" points="48.0733,115.367 764.465,115.367"/>
<polyline class="" fill="none" stroke="#000000" stroke-width="2.00" stroke-linejoin="bevel" points="48.0733,140.367 764.465,140.367"/>
<polyline class="" fill="none" stroke="#000000" stroke-width="2.00" stroke-linejoin="bevel" points="48.0733,165.367 764.465,165.367"/>
<polyline class="" fill="none" stroke="#000000" stroke-width="2.00" stroke-linejoin="bevel" points="48.0733,190.367 764.465,190.367"/>
<path class="" d="M253.378,177.867 C254.222,177.409 255.068,177.18 255.917,177.18 C256.766,177.18 257.612,177.409 258.456,177.867 L258.159,196.133 L268.815,194.18 L269.206,194.18 C270.373,194.18 270.956,194.732 270.956,195.836 L271.644,252.867 C270.8,253.326 269.953,253.555 269.105,253.555 C268.256,253.555 267.409,253.326 266.565,252.867 L266.862,234.602 L256.315,236.555 L255.925,236.555 C254.748,236.555 254.159,236.003 254.159,234.898 L253.378,177.867 M266.956,224.836 L267.253,204.133 L258.065,205.898 L257.769,226.602 L266.956,224.836 "/>
<polyline class="" fill="none" stroke="#000000" stroke-width="4.00" stroke-linecap="square" stroke-linejoin="bevel" points="274.55,215.367 339.065,215.367"/>
<path class="" d="M303.534,204.133 C301.19,204.133 299.498,204.945 298.456,206.57 C297.289,208.133 296.706,210.253 296.706,212.93 C296.706,215.992 297.519,218.628 299.144,220.836 C300.769,222.982 302.56,224.482 304.519,225.336 C306.269,226.18 308.123,226.602 310.081,226.602 C312.362,226.602 314.086,225.789 315.253,224.164 C316.357,222.529 316.909,220.409 316.909,217.805 C316.909,214.742 316.097,212.107 314.472,209.898 C312.847,207.815 311.092,206.315 309.206,205.398 C307.31,204.555 305.42,204.133 303.534,204.133 M306.862,201.602 C313.894,201.602 319.753,202.966 324.44,205.695 C329.19,208.435 331.565,211.659 331.565,215.367 C331.565,219.336 329.123,222.591 324.237,225.133 C319.352,227.8 313.56,229.133 306.862,229.133 C299.956,229.133 294.097,227.768 289.284,225.039 C284.461,222.3 282.05,219.076 282.05,215.367 C282.05,211.398 284.524,208.143 289.472,205.602 C294.357,202.935 300.154,201.602 306.862,201.602"/>
<path class="" d="M126.48,106.477 C125.506,105.497 125.019,104.292 125.019,102.859 C125.019,101.427 125.506,100.224 126.48,99.25 C127.453,98.2761 128.657,97.7891 130.089,97.7891 C131.521,97.7891 132.727,98.2761 133.706,99.25 C134.685,100.224 135.175,101.427 135.175,102.859 C135.175,104.292 134.685,105.497 133.706,106.477 C132.727,107.456 131.521,107.945 130.089,107.945 C128.657,107.945 127.453,107.456 126.48,106.477 M126.48,131.484 C125.506,130.51 125.019,129.307 125.019,127.875 C125.019,126.443 125.506,125.237 126.48,124.258 C127.453,123.279 128.657,122.789 130.089,122.789 C131.521,122.789 132.727,123.279 133.706,124.258 C134.685,125.237 135.175,126.443 135.175,127.875 C135.175,129.307 134.685,130.51 133.706,131.484 C132.727,132.458 131.521,132.945 130.089,132.945 C128.657,132.945 127.453,132.458 126.48,131.484 M92.5967,89.1016 C101.253,89.1016 108.347,91.2787 113.878,95.6329 C119.222,100.195 121.894,106.383 121.894,114.195 C121.894,119.466 120.852,124.284 118.769,128.648 C116.81,133.211 114.237,137.247 111.05,140.758 C107.789,144.341 103.852,147.727 99.2373,150.914 C94.7373,154.039 90.1123,156.841 85.3623,159.32 C75.6644,164.195 70.3259,166.633 69.3467,166.633 C68.503,166.633 68.0811,166.211 68.0811,165.367 C68.0811,165.044 68.2113,164.753 68.4717,164.492 C71.7946,162.534 75.8623,160.029 80.6748,156.977 C83.7998,154.956 87.4457,152.154 91.6123,148.57 C95.654,145.185 98.779,141.997 100.987,139.008 C103.269,136.07 105.352,132.425 107.237,128.07 C108.862,123.706 109.675,119.404 109.675,115.164 C109.675,108.852 108.112,103.352 104.987,98.6641 C101.862,93.9766 97.7321,91.6329 92.5967,91.6329 C88.9509,91.6329 85.8259,92.8047 83.2217,95.1485 C80.4196,97.5547 78.3988,100.581 77.1592,104.227 C78.3988,103.706 79.5394,103.445 80.5811,103.445 C83.3103,103.445 85.654,104.425 87.6123,106.383 C89.5603,108.466 90.5342,110.841 90.5342,113.508 C90.5342,116.31 89.5915,118.82 87.7061,121.039 C85.6853,123.05 83.3103,124.055 80.5811,124.055 C77.654,124.055 75.0186,123.05 72.6748,121.039 C70.4561,118.82 69.3467,116.31 69.3467,113.508 C69.3467,106.8 71.628,101.07 76.1905,96.3204 C80.6801,91.5079 86.1488,89.1016 92.5967,89.1016"/>
<path class="" d="M195.94,137.633 C194.253,137.633 192.56,136.982 190.862,135.68 C189.237,134.44 188.425,132.617 188.425,130.211 C188.425,128.19 189.107,126.398 190.472,124.836 C191.774,123.273 193.498,122.492 195.644,122.492 C196.362,122.492 196.821,122.523 197.019,122.586 C194.019,118.753 190.013,116.768 185.003,116.633 C181.232,116.633 178.368,117.706 176.409,119.852 C175.763,120.706 175.18,122.076 174.659,123.961 C174.138,125.846 173.878,127.539 173.878,129.039 C173.743,130.081 173.675,132.164 173.675,135.289 L173.675,145.445 C173.675,148.57 173.743,150.685 173.878,151.789 C174.138,156.029 174.982,159.06 176.409,160.883 C178.43,163.091 181.295,164.195 185.003,164.195 C188.909,164.195 192.232,162.763 194.972,159.898 C197.763,157.096 199.717,153.482 200.831,149.055 C201.019,148.409 201.409,148.086 202.003,148.086 C202.847,148.086 203.269,148.477 203.269,149.258 C203.269,149.716 203.071,150.596 202.675,151.898 C201.769,154.826 199.982,157.914 197.315,161.164 C194.118,164.81 190.013,166.633 185.003,166.633 C182.076,166.633 179.081,166.211 176.019,165.367 C173.029,164.326 170.394,162.893 168.112,161.07 C165.571,159.05 163.586,156.315 162.159,152.867 C160.722,149.096 160.003,144.93 160.003,140.367 C160.003,132.419 162.154,126.102 166.456,121.414 C170.623,116.602 176.805,114.195 185.003,114.195 C190.347,114.195 194.581,116.018 197.706,119.664 C200.956,123.31 202.581,126.925 202.581,130.508 C202.581,132.591 201.93,134.284 200.628,135.586 C199.461,136.951 197.899,137.633 195.94,137.633"/>
</svg>
