<?xml version="1.0" encoding="UTF-8" standalone="no"?>
<svg width="451px" height="292px" viewBox="0 0 451 292"
 xmlns="http://www.w3.org/2000/svg" xmlns:xlink="http://www.w3.org/1999/xlink" version="1.2" baseProfile="tiny">
<title>Sin título</title>
<desc>Generated by MuseScore 3.5.0</desc>
<polyline class="" fill="none" stroke="#000000" stroke-width="2.00" stroke-linejoin="bevel" points="43.0804,97.1816 717.988,97.1816"/>
<polyline class="" fill="none" stroke="#000000" stroke-width="2.00" stroke-linejoin="bevel" points="43.0804,122.182 717.988,122.182"/>
<polyline class="" fill="none" stroke="#000000" stroke-width="2.00" stroke-linejoin="bevel" points="43.0804,147.182 717.988,147.182"/>
<polyline class="" fill="none" stroke="#000000" stroke-width="2.00" stroke-linejoin="bevel" points="43.0804,172.182 717.988,172.182"/>
<polyline class="" fill="none" stroke="#000000" stroke-width="2.00" stroke-linejoin="bevel" points="43.0804,197.182 717.988,197.182"/>
<path class="" d="M244.854,240.838 C244.854,242.077 244.237,242.697 243.002,242.697 C241.768,242.697 241.151,242.077 241.151,240.838 L241.151,226.385 L232.854,229.51 L232.854,245.322 C232.854,246.562 232.234,247.182 230.994,247.182 C229.755,247.182 229.135,246.562 229.135,245.322 L229.135,230.775 L226.01,231.947 C225.948,232.01 225.687,232.041 225.229,232.041 C224.708,232.041 224.252,231.846 223.862,231.455 C223.471,231.064 223.276,230.609 223.276,230.088 L223.276,224.041 C223.276,223.062 223.698,222.442 224.541,222.182 L229.135,220.619 L229.135,204.603 L226.01,205.682 C225.948,205.744 225.687,205.775 225.229,205.775 C224.708,205.775 224.252,205.58 223.862,205.189 C223.471,204.799 223.276,204.343 223.276,203.822 L223.276,197.76 C223.276,196.853 223.698,196.27 224.541,196.01 L229.135,194.244 L229.135,178.525 C229.135,177.286 229.755,176.666 230.994,176.666 C232.234,176.666 232.854,177.286 232.854,178.525 L232.854,192.978 L241.151,189.853 L241.151,174.041 C241.151,172.801 241.768,172.182 243.002,172.182 C244.237,172.182 244.854,172.801 244.854,174.041 L244.854,188.588 L248.088,187.416 C248.151,187.353 248.375,187.322 248.76,187.322 C249.218,187.322 249.708,187.515 250.229,187.9 C250.625,188.296 250.823,188.755 250.823,189.275 L250.823,195.322 C250.823,196.239 250.364,196.859 249.448,197.182 L244.854,198.744 L244.854,214.76 L248.088,213.682 C248.151,213.619 248.375,213.588 248.76,213.588 C249.218,213.588 249.708,213.786 250.229,214.182 C250.625,214.567 250.823,215.02 250.823,215.541 L250.823,221.603 C250.823,222.447 250.364,223.031 249.448,223.353 L244.854,225.119 L244.854,240.838 M241.151,200.213 L232.854,203.135 L232.854,219.15 L241.151,216.228 L241.151,200.213 "/>
<path class="" d="M277.799,198.447 C275.455,198.447 273.763,199.26 272.721,200.885 C271.554,202.447 270.971,204.567 270.971,207.244 C270.971,210.307 271.784,212.942 273.409,215.15 C275.034,217.296 276.825,218.796 278.784,219.65 C280.534,220.494 282.388,220.916 284.346,220.916 C286.627,220.916 288.351,220.103 289.518,218.478 C290.622,216.843 291.174,214.723 291.174,212.119 C291.174,209.057 290.362,206.421 288.737,204.213 C287.112,202.13 285.356,200.63 283.471,199.713 C281.575,198.869 279.685,198.447 277.799,198.447 M281.127,195.916 C288.159,195.916 294.018,197.281 298.705,200.01 C303.455,202.749 305.83,205.973 305.83,209.682 C305.83,213.65 303.388,216.906 298.502,219.447 C293.617,222.114 287.825,223.447 281.127,223.447 C274.221,223.447 268.362,222.083 263.549,219.353 C258.726,216.614 256.315,213.39 256.315,209.682 C256.315,205.713 258.789,202.458 263.737,199.916 C268.622,197.249 274.419,195.916 281.127,195.916"/>
<path class="" d="M121.487,113.291 C120.513,112.312 120.026,111.106 120.026,109.674 C120.026,108.241 120.513,107.038 121.487,106.064 C122.461,105.09 123.664,104.603 125.096,104.603 C126.528,104.603 127.734,105.09 128.713,106.064 C129.692,107.038 130.182,108.241 130.182,109.674 C130.182,111.106 129.692,112.312 128.713,113.291 C127.734,114.27 126.528,114.76 125.096,114.76 C123.664,114.76 122.461,114.27 121.487,113.291 M121.487,138.299 C120.513,137.325 120.026,136.122 120.026,134.689 C120.026,133.257 120.513,132.051 121.487,131.072 C122.461,130.093 123.664,129.603 125.096,129.603 C126.528,129.603 127.734,130.093 128.713,131.072 C129.692,132.051 130.182,133.257 130.182,134.689 C130.182,136.122 129.692,137.325 128.713,138.299 C127.734,139.273 126.528,139.76 125.096,139.76 C123.664,139.76 122.461,139.273 121.487,138.299 M87.6039,95.916 C96.2601,95.916 103.354,98.0931 108.885,102.447 C114.229,107.01 116.901,113.197 116.901,121.01 C116.901,126.281 115.859,131.098 113.776,135.463 C111.817,140.025 109.244,144.062 106.057,147.572 C102.797,151.156 98.8591,154.541 94.2445,157.728 C89.7445,160.853 85.1195,163.656 80.3695,166.135 C70.6716,171.01 65.333,173.447 64.3539,173.447 C63.5101,173.447 63.0882,173.025 63.0882,172.182 C63.0882,171.859 63.2185,171.567 63.4789,171.307 C66.8018,169.348 70.8695,166.843 75.682,163.791 C78.807,161.77 82.4528,158.968 86.6195,155.385 C90.6612,151.999 93.7862,148.812 95.9945,145.822 C98.2757,142.885 100.359,139.239 102.244,134.885 C103.869,130.52 104.682,126.218 104.682,121.978 C104.682,115.666 103.119,110.166 99.9945,105.478 C96.8695,100.791 92.7393,98.4472 87.6039,98.4472 C83.958,98.4472 80.833,99.6191 78.2289,101.963 C75.4268,104.369 73.406,107.395 72.1664,111.041 C73.406,110.52 74.5466,110.26 75.5882,110.26 C78.3174,110.26 80.6612,111.239 82.6195,113.197 C84.5674,115.281 85.5414,117.656 85.5414,120.322 C85.5414,123.124 84.5987,125.635 82.7132,127.853 C80.6924,129.864 78.3174,130.869 75.5882,130.869 C72.6612,130.869 70.0257,129.864 67.682,127.853 C65.4632,125.635 64.3539,123.124 64.3539,120.322 C64.3539,113.614 66.6351,107.885 71.1976,103.135 C75.6872,98.3222 81.156,95.916 87.6039,95.916"/>
<path class="" d="M190.948,144.447 C189.26,144.447 187.567,143.796 185.869,142.494 C184.244,141.255 183.432,139.432 183.432,137.025 C183.432,135.005 184.114,133.213 185.479,131.65 C186.781,130.088 188.505,129.307 190.651,129.307 C191.369,129.307 191.828,129.338 192.026,129.4 C189.026,125.567 185.021,123.583 180.01,123.447 C176.239,123.447 173.375,124.52 171.416,126.666 C170.771,127.52 170.187,128.89 169.666,130.775 C169.146,132.661 168.885,134.353 168.885,135.853 C168.75,136.895 168.682,138.978 168.682,142.103 L168.682,152.26 C168.682,155.385 168.75,157.499 168.885,158.603 C169.146,162.843 169.989,165.874 171.416,167.697 C173.437,169.906 176.302,171.01 180.01,171.01 C183.916,171.01 187.239,169.577 189.979,166.713 C192.771,163.911 194.724,160.296 195.838,155.869 C196.026,155.223 196.416,154.9 197.01,154.9 C197.854,154.9 198.276,155.291 198.276,156.072 C198.276,156.531 198.078,157.411 197.682,158.713 C196.776,161.64 194.989,164.728 192.323,167.978 C189.125,171.624 185.021,173.447 180.01,173.447 C177.083,173.447 174.088,173.025 171.026,172.182 C168.036,171.14 165.401,169.708 163.119,167.885 C160.578,165.864 158.593,163.13 157.166,159.682 C155.729,155.911 155.01,151.744 155.01,147.182 C155.01,139.234 157.161,132.916 161.463,128.228 C165.63,123.416 171.812,121.01 180.01,121.01 C185.354,121.01 189.588,122.833 192.713,126.478 C195.963,130.124 197.588,133.739 197.588,137.322 C197.588,139.406 196.937,141.098 195.635,142.4 C194.468,143.765 192.906,144.447 190.948,144.447"/>
</svg>
