<?xml version="1.0" encoding="UTF-8" standalone="no"?>
<svg width="451px" height="292px" viewBox="0 0 451 292"
 xmlns="http://www.w3.org/2000/svg" xmlns:xlink="http://www.w3.org/1999/xlink" version="1.2" baseProfile="tiny">
<title>Sin título</title>
<desc>Generated by MuseScore 3.5.0</desc>
<polyline class="" fill="none" stroke="#000000" stroke-width="2.00" stroke-linejoin="bevel" points="43.0804,97.1816 708.426,97.1816"/>
<polyline class="" fill="none" stroke="#000000" stroke-width="2.00" stroke-linejoin="bevel" points="43.0804,122.182 708.426,122.182"/>
<polyline class="" fill="none" stroke="#000000" stroke-width="2.00" stroke-linejoin="bevel" points="43.0804,147.182 708.426,147.182"/>
<polyline class="" fill="none" stroke="#000000" stroke-width="2.00" stroke-linejoin="bevel" points="43.0804,172.182 708.426,172.182"/>
<polyline class="" fill="none" stroke="#000000" stroke-width="2.00" stroke-linejoin="bevel" points="43.0804,197.182 708.426,197.182"/>
<path class="" d="M228.455,180.572 L228.455,188.291 C228.455,191.031 228.586,193.213 228.846,194.838 C230.992,193.015 232.523,191.65 233.44,190.744 C234.481,189.702 235.523,188.268 236.565,186.439 C237.606,184.611 238.127,182.786 238.127,180.963 C238.127,179.14 237.737,177.577 236.955,176.275 C236.174,174.973 235.133,174.322 233.83,174.322 C232.268,174.322 230.966,174.911 229.924,176.088 C228.945,177.39 228.455,178.885 228.455,180.572 M224.346,198.447 L223.08,138.978 C223.997,138.458 224.911,138.197 225.823,138.197 C226.734,138.197 227.643,138.458 228.549,138.978 L227.768,173.447 C230.435,171.166 233.497,170.025 236.955,170.025 C239.487,170.025 241.599,171.067 243.291,173.15 C244.984,175.234 245.83,177.614 245.83,180.291 C245.83,181.978 245.278,183.77 244.174,185.666 C243.133,187.416 242.028,188.781 240.862,189.76 C240.205,190.281 238.544,191.583 235.877,193.666 C235.096,194.249 234.169,194.932 233.096,195.713 C232.023,196.494 231.356,196.984 231.096,197.182 C230.638,197.442 230.211,197.963 229.815,198.744 C229.367,199.4 228.846,199.952 228.252,200.4 C227.804,200.796 227.255,200.994 226.604,200.994 C225.953,200.994 225.429,200.765 225.034,200.307 C224.575,199.848 224.346,199.228 224.346,198.447"/>
<path class="" d="M273.018,173.447 C270.674,173.447 268.981,174.26 267.94,175.885 C266.773,177.447 266.19,179.567 266.19,182.244 C266.19,185.307 267.002,187.942 268.627,190.15 C270.252,192.296 272.044,193.796 274.002,194.65 C275.752,195.494 277.606,195.916 279.565,195.916 C281.846,195.916 283.57,195.103 284.737,193.478 C285.841,191.843 286.393,189.723 286.393,187.119 C286.393,184.057 285.58,181.421 283.955,179.213 C282.33,177.13 280.575,175.63 278.69,174.713 C276.794,173.869 274.903,173.447 273.018,173.447 M276.346,170.916 C283.377,170.916 289.237,172.281 293.924,175.01 C298.674,177.749 301.049,180.973 301.049,184.682 C301.049,188.65 298.606,191.906 293.721,194.447 C288.836,197.114 283.044,198.447 276.346,198.447 C269.44,198.447 263.58,197.083 258.768,194.353 C253.945,191.614 251.534,188.39 251.534,184.682 C251.534,180.713 254.008,177.458 258.955,174.916 C263.841,172.249 269.638,170.916 276.346,170.916"/>
<path class="" d="M121.487,113.291 C120.513,112.312 120.026,111.106 120.026,109.674 C120.026,108.241 120.513,107.038 121.487,106.064 C122.461,105.09 123.664,104.603 125.096,104.603 C126.528,104.603 127.734,105.09 128.713,106.064 C129.692,107.038 130.182,108.241 130.182,109.674 C130.182,111.106 129.692,112.312 128.713,113.291 C127.734,114.27 126.528,114.76 125.096,114.76 C123.664,114.76 122.461,114.27 121.487,113.291 M121.487,138.299 C120.513,137.325 120.026,136.122 120.026,134.689 C120.026,133.257 120.513,132.051 121.487,131.072 C122.461,130.093 123.664,129.603 125.096,129.603 C126.528,129.603 127.734,130.093 128.713,131.072 C129.692,132.051 130.182,133.257 130.182,134.689 C130.182,136.122 129.692,137.325 128.713,138.299 C127.734,139.273 126.528,139.76 125.096,139.76 C123.664,139.76 122.461,139.273 121.487,138.299 M87.6039,95.916 C96.2601,95.916 103.354,98.0931 108.885,102.447 C114.229,107.01 116.901,113.197 116.901,121.01 C116.901,126.281 115.859,131.098 113.776,135.463 C111.817,140.025 109.244,144.062 106.057,147.572 C102.797,151.156 98.8591,154.541 94.2445,157.728 C89.7445,160.853 85.1195,163.656 80.3695,166.135 C70.6716,171.01 65.333,173.447 64.3539,173.447 C63.5101,173.447 63.0882,173.025 63.0882,172.182 C63.0882,171.859 63.2185,171.567 63.4789,171.307 C66.8018,169.348 70.8695,166.843 75.682,163.791 C78.807,161.77 82.4528,158.968 86.6195,155.385 C90.6612,151.999 93.7862,148.812 95.9945,145.822 C98.2757,142.885 100.359,139.239 102.244,134.885 C103.869,130.52 104.682,126.218 104.682,121.978 C104.682,115.666 103.119,110.166 99.9945,105.478 C96.8695,100.791 92.7393,98.4472 87.6039,98.4472 C83.958,98.4472 80.833,99.6191 78.2289,101.963 C75.4268,104.369 73.406,107.395 72.1664,111.041 C73.406,110.52 74.5466,110.26 75.5882,110.26 C78.3174,110.26 80.6612,111.239 82.6195,113.197 C84.5674,115.281 85.5414,117.656 85.5414,120.322 C85.5414,123.124 84.5987,125.635 82.7132,127.853 C80.6924,129.864 78.3174,130.869 75.5882,130.869 C72.6612,130.869 70.0257,129.864 67.682,127.853 C65.4632,125.635 64.3539,123.124 64.3539,120.322 C64.3539,113.614 66.6351,107.885 71.1976,103.135 C75.6872,98.3222 81.156,95.916 87.6039,95.916"/>
<path class="" d="M190.948,144.447 C189.26,144.447 187.567,143.796 185.869,142.494 C184.244,141.255 183.432,139.432 183.432,137.025 C183.432,135.005 184.114,133.213 185.479,131.65 C186.781,130.088 188.505,129.307 190.651,129.307 C191.369,129.307 191.828,129.338 192.026,129.4 C189.026,125.567 185.021,123.583 180.01,123.447 C176.239,123.447 173.375,124.52 171.416,126.666 C170.771,127.52 170.187,128.89 169.666,130.775 C169.146,132.661 168.885,134.353 168.885,135.853 C168.75,136.895 168.682,138.978 168.682,142.103 L168.682,152.26 C168.682,155.385 168.75,157.499 168.885,158.603 C169.146,162.843 169.989,165.874 171.416,167.697 C173.437,169.906 176.302,171.01 180.01,171.01 C183.916,171.01 187.239,169.577 189.979,166.713 C192.771,163.911 194.724,160.296 195.838,155.869 C196.026,155.223 196.416,154.9 197.01,154.9 C197.854,154.9 198.276,155.291 198.276,156.072 C198.276,156.531 198.078,157.411 197.682,158.713 C196.776,161.64 194.989,164.728 192.323,167.978 C189.125,171.624 185.021,173.447 180.01,173.447 C177.083,173.447 174.088,173.025 171.026,172.182 C168.036,171.14 165.401,169.708 163.119,167.885 C160.578,165.864 158.593,163.13 157.166,159.682 C155.729,155.911 155.01,151.744 155.01,147.182 C155.01,139.234 157.161,132.916 161.463,128.228 C165.63,123.416 171.812,121.01 180.01,121.01 C185.354,121.01 189.588,122.833 192.713,126.478 C195.963,130.124 197.588,133.739 197.588,137.322 C197.588,139.406 196.937,141.098 195.635,142.4 C194.468,143.765 192.906,144.447 190.948,144.447"/>
</svg>
