<?xml version="1.0" encoding="UTF-8" standalone="no"?>
<svg width="451px" height="292px" viewBox="0 0 451 292"
 xmlns="http://www.w3.org/2000/svg" xmlns:xlink="http://www.w3.org/1999/xlink" version="1.2" baseProfile="tiny">
<title>Sin título</title>
<desc>Generated by MuseScore 3.5.0</desc>
<polyline class="" fill="none" stroke="#000000" stroke-width="2.00" stroke-linejoin="bevel" points="43.0804,97.1816 727.988,97.1816"/>
<polyline class="" fill="none" stroke="#000000" stroke-width="2.00" stroke-linejoin="bevel" points="43.0804,122.182 727.988,122.182"/>
<polyline class="" fill="none" stroke="#000000" stroke-width="2.00" stroke-linejoin="bevel" points="43.0804,147.182 727.988,147.182"/>
<polyline class="" fill="none" stroke="#000000" stroke-width="2.00" stroke-linejoin="bevel" points="43.0804,172.182 727.988,172.182"/>
<polyline class="" fill="none" stroke="#000000" stroke-width="2.00" stroke-linejoin="bevel" points="43.0804,197.182 727.988,197.182"/>
<path class="" d="M244.854,278.338 C244.854,279.577 244.237,280.197 243.002,280.197 C241.768,280.197 241.151,279.577 241.151,278.338 L241.151,263.885 L232.854,267.01 L232.854,282.822 C232.854,284.062 232.234,284.682 230.994,284.682 C229.755,284.682 229.135,284.062 229.135,282.822 L229.135,268.275 L226.01,269.447 C225.948,269.51 225.687,269.541 225.229,269.541 C224.708,269.541 224.252,269.346 223.862,268.955 C223.471,268.564 223.276,268.109 223.276,267.588 L223.276,261.541 C223.276,260.562 223.698,259.942 224.541,259.682 L229.135,258.119 L229.135,242.103 L226.01,243.182 C225.948,243.244 225.687,243.275 225.229,243.275 C224.708,243.275 224.252,243.08 223.862,242.689 C223.471,242.299 223.276,241.843 223.276,241.322 L223.276,235.26 C223.276,234.353 223.698,233.77 224.541,233.51 L229.135,231.744 L229.135,216.025 C229.135,214.786 229.755,214.166 230.994,214.166 C232.234,214.166 232.854,214.786 232.854,216.025 L232.854,230.478 L241.151,227.353 L241.151,211.541 C241.151,210.301 241.768,209.682 243.002,209.682 C244.237,209.682 244.854,210.301 244.854,211.541 L244.854,226.088 L248.088,224.916 C248.151,224.853 248.375,224.822 248.76,224.822 C249.218,224.822 249.708,225.015 250.229,225.4 C250.625,225.796 250.823,226.255 250.823,226.775 L250.823,232.822 C250.823,233.739 250.364,234.359 249.448,234.682 L244.854,236.244 L244.854,252.26 L248.088,251.182 C248.151,251.119 248.375,251.088 248.76,251.088 C249.218,251.088 249.708,251.286 250.229,251.682 C250.625,252.067 250.823,252.52 250.823,253.041 L250.823,259.103 C250.823,259.947 250.364,260.531 249.448,260.853 L244.854,262.619 L244.854,278.338 M241.151,237.713 L232.854,240.635 L232.854,256.65 L241.151,253.728 L241.151,237.713 "/>
<polyline class="" fill="none" stroke="#000000" stroke-width="4.00" stroke-linecap="square" stroke-linejoin="bevel" points="253.815,247.182 318.33,247.182"/>
<polyline class="" fill="none" stroke="#000000" stroke-width="4.00" stroke-linecap="square" stroke-linejoin="bevel" points="253.815,222.182 318.33,222.182"/>
<path class="" d="M282.799,235.947 C280.455,235.947 278.763,236.76 277.721,238.385 C276.554,239.947 275.971,242.067 275.971,244.744 C275.971,247.807 276.784,250.442 278.409,252.65 C280.034,254.796 281.825,256.296 283.784,257.15 C285.534,257.994 287.388,258.416 289.346,258.416 C291.627,258.416 293.351,257.603 294.518,255.978 C295.622,254.343 296.174,252.223 296.174,249.619 C296.174,246.557 295.362,243.921 293.737,241.713 C292.112,239.63 290.356,238.13 288.471,237.213 C286.575,236.369 284.685,235.947 282.799,235.947 M286.127,233.416 C293.159,233.416 299.018,234.781 303.705,237.51 C308.455,240.249 310.83,243.473 310.83,247.182 C310.83,251.15 308.388,254.406 303.502,256.947 C298.617,259.614 292.825,260.947 286.127,260.947 C279.221,260.947 273.362,259.583 268.549,256.853 C263.726,254.114 261.315,250.89 261.315,247.182 C261.315,243.213 263.789,239.958 268.737,237.416 C273.622,234.749 279.419,233.416 286.127,233.416"/>
<path class="" d="M121.487,113.291 C120.513,112.312 120.026,111.106 120.026,109.674 C120.026,108.241 120.513,107.038 121.487,106.064 C122.461,105.09 123.664,104.603 125.096,104.603 C126.528,104.603 127.734,105.09 128.713,106.064 C129.692,107.038 130.182,108.241 130.182,109.674 C130.182,111.106 129.692,112.312 128.713,113.291 C127.734,114.27 126.528,114.76 125.096,114.76 C123.664,114.76 122.461,114.27 121.487,113.291 M121.487,138.299 C120.513,137.325 120.026,136.122 120.026,134.689 C120.026,133.257 120.513,132.051 121.487,131.072 C122.461,130.093 123.664,129.603 125.096,129.603 C126.528,129.603 127.734,130.093 128.713,131.072 C129.692,132.051 130.182,133.257 130.182,134.689 C130.182,136.122 129.692,137.325 128.713,138.299 C127.734,139.273 126.528,139.76 125.096,139.76 C123.664,139.76 122.461,139.273 121.487,138.299 M87.6039,95.916 C96.2601,95.916 103.354,98.0931 108.885,102.447 C114.229,107.01 116.901,113.197 116.901,121.01 C116.901,126.281 115.859,131.098 113.776,135.463 C111.817,140.025 109.244,144.062 106.057,147.572 C102.797,151.156 98.8591,154.541 94.2445,157.728 C89.7445,160.853 85.1195,163.656 80.3695,166.135 C70.6716,171.01 65.333,173.447 64.3539,173.447 C63.5101,173.447 63.0882,173.025 63.0882,172.182 C63.0882,171.859 63.2185,171.567 63.4789,171.307 C66.8018,169.348 70.8695,166.843 75.682,163.791 C78.807,161.77 82.4528,158.968 86.6195,155.385 C90.6612,151.999 93.7862,148.812 95.9945,145.822 C98.2757,142.885 100.359,139.239 102.244,134.885 C103.869,130.52 104.682,126.218 104.682,121.978 C104.682,115.666 103.119,110.166 99.9945,105.478 C96.8695,100.791 92.7393,98.4472 87.6039,98.4472 C83.958,98.4472 80.833,99.6191 78.2289,101.963 C75.4268,104.369 73.406,107.395 72.1664,111.041 C73.406,110.52 74.5466,110.26 75.5882,110.26 C78.3174,110.26 80.6612,111.239 82.6195,113.197 C84.5674,115.281 85.5414,117.656 85.5414,120.322 C85.5414,123.124 84.5987,125.635 82.7132,127.853 C80.6924,129.864 78.3174,130.869 75.5882,130.869 C72.6612,130.869 70.0257,129.864 67.682,127.853 C65.4632,125.635 64.3539,123.124 64.3539,120.322 C64.3539,113.614 66.6351,107.885 71.1976,103.135 C75.6872,98.3222 81.156,95.916 87.6039,95.916"/>
<path class="" d="M190.948,144.447 C189.26,144.447 187.567,143.796 185.869,142.494 C184.244,141.255 183.432,139.432 183.432,137.025 C183.432,135.005 184.114,133.213 185.479,131.65 C186.781,130.088 188.505,129.307 190.651,129.307 C191.369,129.307 191.828,129.338 192.026,129.4 C189.026,125.567 185.021,123.583 180.01,123.447 C176.239,123.447 173.375,124.52 171.416,126.666 C170.771,127.52 170.187,128.89 169.666,130.775 C169.146,132.661 168.885,134.353 168.885,135.853 C168.75,136.895 168.682,138.978 168.682,142.103 L168.682,152.26 C168.682,155.385 168.75,157.499 168.885,158.603 C169.146,162.843 169.989,165.874 171.416,167.697 C173.437,169.906 176.302,171.01 180.01,171.01 C183.916,171.01 187.239,169.577 189.979,166.713 C192.771,163.911 194.724,160.296 195.838,155.869 C196.026,155.223 196.416,154.9 197.01,154.9 C197.854,154.9 198.276,155.291 198.276,156.072 C198.276,156.531 198.078,157.411 197.682,158.713 C196.776,161.64 194.989,164.728 192.323,167.978 C189.125,171.624 185.021,173.447 180.01,173.447 C177.083,173.447 174.088,173.025 171.026,172.182 C168.036,171.14 165.401,169.708 163.119,167.885 C160.578,165.864 158.593,163.13 157.166,159.682 C155.729,155.911 155.01,151.744 155.01,147.182 C155.01,139.234 157.161,132.916 161.463,128.228 C165.63,123.416 171.812,121.01 180.01,121.01 C185.354,121.01 189.588,122.833 192.713,126.478 C195.963,130.124 197.588,133.739 197.588,137.322 C197.588,139.406 196.937,141.098 195.635,142.4 C194.468,143.765 192.906,144.447 190.948,144.447"/>
</svg>
