<?xml version="1.0" encoding="UTF-8" standalone="no"?>
<svg width="451px" height="292px" viewBox="0 0 451 292"
 xmlns="http://www.w3.org/2000/svg" xmlns:xlink="http://www.w3.org/1999/xlink" version="1.2" baseProfile="tiny">
<title>Sin título</title>
<desc>Generated by MuseScore 3.5.0</desc>
<polyline class="" fill="none" stroke="#000000" stroke-width="2.00" stroke-linejoin="bevel" points="43.0804,97.1816 698.066,97.1816"/>
<polyline class="" fill="none" stroke="#000000" stroke-width="2.00" stroke-linejoin="bevel" points="43.0804,122.182 698.066,122.182"/>
<polyline class="" fill="none" stroke="#000000" stroke-width="2.00" stroke-linejoin="bevel" points="43.0804,147.182 698.066,147.182"/>
<polyline class="" fill="none" stroke="#000000" stroke-width="2.00" stroke-linejoin="bevel" points="43.0804,172.182 698.066,172.182"/>
<polyline class="" fill="none" stroke="#000000" stroke-width="2.00" stroke-linejoin="bevel" points="43.0804,197.182 698.066,197.182"/>
<path class="" d="M244.854,128.338 C244.854,129.577 244.237,130.197 243.002,130.197 C241.768,130.197 241.151,129.577 241.151,128.338 L241.151,113.885 L232.854,117.01 L232.854,132.822 C232.854,134.062 232.234,134.682 230.994,134.682 C229.755,134.682 229.135,134.062 229.135,132.822 L229.135,118.275 L226.01,119.447 C225.948,119.51 225.687,119.541 225.229,119.541 C224.708,119.541 224.252,119.346 223.862,118.955 C223.471,118.564 223.276,118.109 223.276,117.588 L223.276,111.541 C223.276,110.562 223.698,109.942 224.541,109.682 L229.135,108.119 L229.135,92.1035 L226.01,93.1816 C225.948,93.2441 225.687,93.2754 225.229,93.2754 C224.708,93.2754 224.252,93.08 223.862,92.6894 C223.471,92.2988 223.276,91.8431 223.276,91.3222 L223.276,85.2597 C223.276,84.3535 223.698,83.7701 224.541,83.5097 L229.135,81.7441 L229.135,66.0254 C229.135,64.7858 229.755,64.166 230.994,64.166 C232.234,64.166 232.854,64.7858 232.854,66.0254 L232.854,80.4785 L241.151,77.3535 L241.151,61.541 C241.151,60.3014 241.768,59.6816 243.002,59.6816 C244.237,59.6816 244.854,60.3014 244.854,61.541 L244.854,76.0879 L248.088,74.916 C248.151,74.8535 248.375,74.8222 248.76,74.8222 C249.218,74.8222 249.708,75.0149 250.229,75.4004 C250.625,75.7962 250.823,76.2545 250.823,76.7754 L250.823,82.8222 C250.823,83.7389 250.364,84.3587 249.448,84.6816 L244.854,86.2441 L244.854,102.26 L248.088,101.182 C248.151,101.119 248.375,101.088 248.76,101.088 C249.218,101.088 249.708,101.286 250.229,101.682 C250.625,102.067 250.823,102.52 250.823,103.041 L250.823,109.103 C250.823,109.947 250.364,110.531 249.448,110.853 L244.854,112.619 L244.854,128.338 M241.151,87.7129 L232.854,90.6347 L232.854,106.65 L241.151,103.728 L241.151,87.7129 "/>
<path class="" d="M277.799,85.9472 C275.455,85.9472 273.763,86.7597 272.721,88.3847 C271.554,89.9472 270.971,92.067 270.971,94.7441 C270.971,97.8066 271.784,100.442 273.409,102.65 C275.034,104.796 276.825,106.296 278.784,107.15 C280.534,107.994 282.388,108.416 284.346,108.416 C286.627,108.416 288.351,107.603 289.518,105.978 C290.622,104.343 291.174,102.223 291.174,99.6191 C291.174,96.5566 290.362,93.9212 288.737,91.7129 C287.112,89.6295 285.356,88.1295 283.471,87.2129 C281.575,86.3691 279.685,85.9472 277.799,85.9472 M281.127,83.416 C288.159,83.416 294.018,84.7806 298.705,87.5097 C303.455,90.2493 305.83,93.4733 305.83,97.1816 C305.83,101.15 303.388,104.406 298.502,106.947 C293.617,109.614 287.825,110.947 281.127,110.947 C274.221,110.947 268.362,109.583 263.549,106.853 C258.726,104.114 256.315,100.89 256.315,97.1816 C256.315,93.2129 258.789,89.9576 263.737,87.416 C268.622,84.7493 274.419,83.416 281.127,83.416"/>
<path class="" d="M121.487,113.291 C120.513,112.312 120.026,111.106 120.026,109.674 C120.026,108.241 120.513,107.038 121.487,106.064 C122.461,105.09 123.664,104.603 125.096,104.603 C126.528,104.603 127.734,105.09 128.713,106.064 C129.692,107.038 130.182,108.241 130.182,109.674 C130.182,111.106 129.692,112.312 128.713,113.291 C127.734,114.27 126.528,114.76 125.096,114.76 C123.664,114.76 122.461,114.27 121.487,113.291 M121.487,138.299 C120.513,137.325 120.026,136.122 120.026,134.689 C120.026,133.257 120.513,132.051 121.487,131.072 C122.461,130.093 123.664,129.603 125.096,129.603 C126.528,129.603 127.734,130.093 128.713,131.072 C129.692,132.051 130.182,133.257 130.182,134.689 C130.182,136.122 129.692,137.325 128.713,138.299 C127.734,139.273 126.528,139.76 125.096,139.76 C123.664,139.76 122.461,139.273 121.487,138.299 M87.6039,95.916 C96.2601,95.916 103.354,98.0931 108.885,102.447 C114.229,107.01 116.901,113.197 116.901,121.01 C116.901,126.281 115.859,131.098 113.776,135.463 C111.817,140.025 109.244,144.062 106.057,147.572 C102.797,151.156 98.8591,154.541 94.2445,157.728 C89.7445,160.853 85.1195,163.656 80.3695,166.135 C70.6716,171.01 65.333,173.447 64.3539,173.447 C63.5101,173.447 63.0882,173.025 63.0882,172.182 C63.0882,171.859 63.2185,171.567 63.4789,171.307 C66.8018,169.348 70.8695,166.843 75.682,163.791 C78.807,161.77 82.4528,158.968 86.6195,155.385 C90.6612,151.999 93.7862,148.812 95.9945,145.822 C98.2757,142.885 100.359,139.239 102.244,134.885 C103.869,130.52 104.682,126.218 104.682,121.978 C104.682,115.666 103.119,110.166 99.9945,105.478 C96.8695,100.791 92.7393,98.4472 87.6039,98.4472 C83.958,98.4472 80.833,99.6191 78.2289,101.963 C75.4268,104.369 73.406,107.395 72.1664,111.041 C73.406,110.52 74.5466,110.26 75.5882,110.26 C78.3174,110.26 80.6612,111.239 82.6195,113.197 C84.5674,115.281 85.5414,117.656 85.5414,120.322 C85.5414,123.124 84.5987,125.635 82.7132,127.853 C80.6924,129.864 78.3174,130.869 75.5882,130.869 C72.6612,130.869 70.0257,129.864 67.682,127.853 C65.4632,125.635 64.3539,123.124 64.3539,120.322 C64.3539,113.614 66.6351,107.885 71.1976,103.135 C75.6872,98.3222 81.156,95.916 87.6039,95.916"/>
<path class="" d="M190.948,144.447 C189.26,144.447 187.567,143.796 185.869,142.494 C184.244,141.255 183.432,139.432 183.432,137.025 C183.432,135.005 184.114,133.213 185.479,131.65 C186.781,130.088 188.505,129.307 190.651,129.307 C191.369,129.307 191.828,129.338 192.026,129.4 C189.026,125.567 185.021,123.583 180.01,123.447 C176.239,123.447 173.375,124.52 171.416,126.666 C170.771,127.52 170.187,128.89 169.666,130.775 C169.146,132.661 168.885,134.353 168.885,135.853 C168.75,136.895 168.682,138.978 168.682,142.103 L168.682,152.26 C168.682,155.385 168.75,157.499 168.885,158.603 C169.146,162.843 169.989,165.874 171.416,167.697 C173.437,169.906 176.302,171.01 180.01,171.01 C183.916,171.01 187.239,169.577 189.979,166.713 C192.771,163.911 194.724,160.296 195.838,155.869 C196.026,155.223 196.416,154.9 197.01,154.9 C197.854,154.9 198.276,155.291 198.276,156.072 C198.276,156.531 198.078,157.411 197.682,158.713 C196.776,161.64 194.989,164.728 192.323,167.978 C189.125,171.624 185.021,173.447 180.01,173.447 C177.083,173.447 174.088,173.025 171.026,172.182 C168.036,171.14 165.401,169.708 163.119,167.885 C160.578,165.864 158.593,163.13 157.166,159.682 C155.729,155.911 155.01,151.744 155.01,147.182 C155.01,139.234 157.161,132.916 161.463,128.228 C165.63,123.416 171.812,121.01 180.01,121.01 C185.354,121.01 189.588,122.833 192.713,126.478 C195.963,130.124 197.588,133.739 197.588,137.322 C197.588,139.406 196.937,141.098 195.635,142.4 C194.468,143.765 192.906,144.447 190.948,144.447"/>
</svg>
