<?xml version="1.0" encoding="UTF-8" standalone="no"?>
<svg width="532px" height="284px" viewBox="0 0 532 284"
 xmlns="http://www.w3.org/2000/svg" xmlns:xlink="http://www.w3.org/1999/xlink" version="1.2" baseProfile="tiny">
<title>Sin título</title>
<desc>Generated by MuseScore 3.5.0</desc>
<polyline class="" fill="none" stroke="#000000" stroke-width="2.00" stroke-linejoin="bevel" points="79.7454,90.8426 758.231,90.8426"/>
<polyline class="" fill="none" stroke="#000000" stroke-width="2.00" stroke-linejoin="bevel" points="79.7454,115.843 758.231,115.843"/>
<polyline class="" fill="none" stroke="#000000" stroke-width="2.00" stroke-linejoin="bevel" points="79.7454,140.843 758.231,140.843"/>
<polyline class="" fill="none" stroke="#000000" stroke-width="2.00" stroke-linejoin="bevel" points="79.7454,165.843 758.231,165.843"/>
<polyline class="" fill="none" stroke="#000000" stroke-width="2.00" stroke-linejoin="bevel" points="79.7454,190.843 758.231,190.843"/>
<path class="" d="M281.058,78.3426 C281.902,77.8843 282.748,77.6551 283.597,77.6551 C284.446,77.6551 285.292,77.8843 286.136,78.3426 L285.839,96.6083 L296.495,94.6551 L296.886,94.6551 C298.053,94.6551 298.636,95.2072 298.636,96.3114 L299.324,153.343 C298.48,153.801 297.633,154.03 296.784,154.03 C295.936,154.03 295.089,153.801 294.245,153.343 L294.542,135.077 L283.995,137.03 L283.605,137.03 C282.428,137.03 281.839,136.478 281.839,135.374 L281.058,78.3426 M294.636,125.311 L294.933,104.608 L285.745,106.374 L285.449,127.077 L294.636,125.311 "/>
<path class="" d="M326.214,104.608 C323.87,104.608 322.178,105.421 321.136,107.046 C319.969,108.608 319.386,110.728 319.386,113.405 C319.386,116.468 320.199,119.103 321.824,121.311 C323.449,123.457 325.24,124.957 327.199,125.811 C328.949,126.655 330.803,127.077 332.761,127.077 C335.042,127.077 336.766,126.265 337.933,124.64 C339.037,123.004 339.589,120.884 339.589,118.28 C339.589,115.218 338.777,112.582 337.152,110.374 C335.527,108.291 333.771,106.791 331.886,105.874 C329.99,105.03 328.1,104.608 326.214,104.608 M329.542,102.077 C336.574,102.077 342.433,103.442 347.12,106.171 C351.87,108.91 354.245,112.134 354.245,115.843 C354.245,119.811 351.803,123.067 346.917,125.608 C342.032,128.275 336.24,129.608 329.542,129.608 C322.636,129.608 316.777,128.244 311.964,125.515 C307.141,122.775 304.73,119.551 304.73,115.843 C304.73,111.874 307.204,108.619 312.152,106.077 C317.037,103.41 322.834,102.077 329.542,102.077"/>
<path class="" d="M136.464,140.249 C136.464,140.249 136.662,140.249 137.058,140.249 C137.318,140.186 137.542,140.155 137.73,140.155 C145.021,140.155 151.011,142.728 155.699,147.874 C160.386,152.947 162.73,158.869 162.73,165.64 C162.73,174.046 159.251,180.884 152.292,186.155 C150.469,187.593 148.089,188.765 145.152,189.671 C145.485,193.9 145.652,197.317 145.652,199.921 C145.652,200.442 145.584,202.332 145.449,205.593 C145.188,211.645 143.105,216.884 139.199,221.311 C135.428,225.676 130.74,227.858 125.136,227.858 C119.865,227.858 115.376,226.004 111.667,222.296 C107.949,218.515 106.089,213.957 106.089,208.624 C106.089,205.822 107.167,203.442 109.324,201.483 C111.532,199.535 114.1,198.561 117.027,198.561 C119.631,198.561 121.813,199.572 123.574,201.593 C125.396,203.478 126.308,205.822 126.308,208.624 C126.308,211.155 125.396,213.332 123.574,215.155 C121.751,216.978 119.568,217.89 117.027,217.89 C115.985,217.89 114.98,217.697 114.011,217.311 C116.876,221.541 120.683,223.655 125.433,223.655 C129.922,223.655 133.6,221.832 136.464,218.186 C139.464,214.416 141.094,210.02 141.355,204.999 C141.48,201.874 141.542,200.087 141.542,199.64 C141.542,195.994 141.412,192.999 141.152,190.655 C137.902,191.176 135.006,191.436 132.464,191.436 C123.412,191.436 115.699,187.853 109.324,180.686 C103.074,173.457 99.9485,164.863 99.9485,154.905 C99.9485,152.822 100.141,150.707 100.527,148.561 C100.922,146.801 101.412,144.879 101.995,142.796 C102.318,141.619 103.199,139.728 104.636,137.124 C105.157,136.343 105.743,135.366 106.394,134.194 C107.045,133.022 107.501,132.244 107.761,131.858 C108.407,130.556 109.672,128.796 111.558,126.577 C112.079,125.994 112.618,125.345 113.175,124.632 C113.732,123.918 114.206,123.332 114.597,122.874 C114.988,122.416 115.279,122.056 115.472,121.796 C115.665,121.535 117.131,119.811 119.87,116.624 C120.516,115.968 121.149,115.267 121.769,114.522 C122.389,113.778 122.894,113.192 123.284,112.765 C123.675,112.337 123.969,112.03 124.167,111.843 C121.824,104.093 120.355,97.9051 119.761,93.2801 C119.313,89.5718 119.089,84.4937 119.089,78.0458 C119.089,72.3791 120.391,67.0718 122.995,62.1239 C125.527,56.9885 129.074,52.7906 133.636,49.5301 C133.896,49.3322 134.219,49.2333 134.605,49.2333 C135.063,49.2333 135.391,49.3322 135.589,49.5301 C139.1,53.7593 142.126,59.2593 144.667,66.0301 C147.271,72.801 148.574,78.9572 148.574,84.4989 C148.574,90.7489 147.079,96.6083 144.089,102.077 C140.704,107.869 136.339,113.858 130.995,120.046 C132.36,124.337 134.183,131.072 136.464,140.249 M144.761,185.671 C148.146,184.431 150.787,182.317 152.683,179.327 C154.766,176.462 155.808,173.238 155.808,169.655 C155.808,165.03 154.245,160.926 151.12,157.343 C147.922,153.634 143.85,151.551 138.902,151.093 C141.704,164.832 143.657,176.358 144.761,185.671 M106.98,163.108 C106.98,169.556 109.584,175.223 114.792,180.108 C120.126,184.858 126.115,187.233 132.761,187.233 C135.49,187.233 138.157,187.035 140.761,186.64 C139.719,176.744 137.667,164.895 134.605,151.093 C130.896,151.488 127.938,152.791 125.73,154.999 C123.574,157.28 122.495,159.853 122.495,162.718 C122.495,167.666 125.136,171.671 130.417,174.733 C130.865,175.192 131.089,175.681 131.089,176.202 C131.089,176.723 130.865,177.207 130.417,177.655 C130.021,178.113 129.532,178.343 128.949,178.343 C128.886,178.343 128.594,178.28 128.074,178.155 C124.355,176.134 121.49,173.53 119.48,170.343 C117.584,166.947 116.636,163.525 116.636,160.077 C116.636,155.587 118.037,151.52 120.839,147.874 C123.766,144.228 127.574,141.884 132.261,140.843 C130.438,133.551 128.943,127.853 127.777,123.749 C126.735,124.926 125.482,126.343 124.019,127.999 C122.555,129.655 121.693,130.65 121.433,130.983 C119.089,134.035 117.297,136.41 116.058,138.108 C113.839,141.171 112.209,143.806 111.167,146.015 C110.063,148.494 109.089,151.197 108.245,154.124 C107.402,156.926 106.98,159.921 106.98,163.108 M139.589,63.7958 C134.704,66.202 130.865,69.6499 128.074,74.1395 C125.209,78.7645 123.777,83.7437 123.777,89.077 C123.777,93.7645 124.949,100.082 127.292,108.03 C131.98,102.363 135.495,97.1239 137.839,92.3114 C140.308,87.2281 141.542,81.9208 141.542,76.3895 C141.542,72.2228 140.891,68.0249 139.589,63.7958"/>
<path class="" d="M223.62,138.108 C221.933,138.108 220.24,137.457 218.542,136.155 C216.917,134.916 216.105,133.093 216.105,130.686 C216.105,128.666 216.787,126.874 218.152,125.311 C219.454,123.749 221.178,122.968 223.324,122.968 C224.042,122.968 224.501,122.999 224.699,123.061 C221.699,119.228 217.693,117.244 212.683,117.108 C208.912,117.108 206.047,118.181 204.089,120.327 C203.443,121.181 202.86,122.551 202.339,124.436 C201.818,126.322 201.558,128.015 201.558,129.515 C201.422,130.556 201.355,132.64 201.355,135.765 L201.355,145.921 C201.355,149.046 201.422,151.16 201.558,152.265 C201.818,156.504 202.662,159.535 204.089,161.358 C206.11,163.567 208.975,164.671 212.683,164.671 C216.589,164.671 219.912,163.238 222.652,160.374 C225.443,157.572 227.396,153.957 228.511,149.53 C228.699,148.884 229.089,148.561 229.683,148.561 C230.527,148.561 230.949,148.952 230.949,149.733 C230.949,150.192 230.751,151.072 230.355,152.374 C229.449,155.301 227.662,158.39 224.995,161.64 C221.797,165.285 217.693,167.108 212.683,167.108 C209.756,167.108 206.761,166.686 203.699,165.843 C200.709,164.801 198.074,163.369 195.792,161.546 C193.251,159.525 191.266,156.791 189.839,153.343 C188.402,149.572 187.683,145.405 187.683,140.843 C187.683,132.895 189.834,126.577 194.136,121.89 C198.303,117.077 204.485,114.671 212.683,114.671 C218.027,114.671 222.261,116.494 225.386,120.14 C228.636,123.785 230.261,127.4 230.261,130.983 C230.261,133.067 229.61,134.759 228.308,136.061 C227.141,137.426 225.579,138.108 223.62,138.108"/>
</svg>
