<?xml version="1.0" encoding="UTF-8" standalone="no"?>
<svg width="451px" height="292px" viewBox="0 0 451 292"
 xmlns="http://www.w3.org/2000/svg" xmlns:xlink="http://www.w3.org/1999/xlink" version="1.2" baseProfile="tiny">
<title>Sin título</title>
<desc>Generated by MuseScore 3.5.0</desc>
<polyline class="" fill="none" stroke="#000000" stroke-width="2.00" stroke-linejoin="bevel" points="43.0804,97.1816 690.082,97.1816"/>
<polyline class="" fill="none" stroke="#000000" stroke-width="2.00" stroke-linejoin="bevel" points="43.0804,122.182 690.082,122.182"/>
<polyline class="" fill="none" stroke="#000000" stroke-width="2.00" stroke-linejoin="bevel" points="43.0804,147.182 690.082,147.182"/>
<polyline class="" fill="none" stroke="#000000" stroke-width="2.00" stroke-linejoin="bevel" points="43.0804,172.182 690.082,172.182"/>
<polyline class="" fill="none" stroke="#000000" stroke-width="2.00" stroke-linejoin="bevel" points="43.0804,197.182 690.082,197.182"/>
<path class="" d="M240.862,153.338 C240.862,154.577 240.244,155.197 239.01,155.197 C237.776,155.197 237.159,154.577 237.159,153.338 L237.159,138.885 L228.862,142.01 L228.862,157.822 C228.862,159.062 228.242,159.682 227.002,159.682 C225.763,159.682 225.143,159.062 225.143,157.822 L225.143,143.275 L222.018,144.447 C221.955,144.51 221.695,144.541 221.237,144.541 C220.716,144.541 220.26,144.346 219.869,143.955 C219.479,143.564 219.284,143.109 219.284,142.588 L219.284,136.541 C219.284,135.562 219.705,134.942 220.549,134.682 L225.143,133.119 L225.143,117.103 L222.018,118.182 C221.955,118.244 221.695,118.275 221.237,118.275 C220.716,118.275 220.26,118.08 219.869,117.689 C219.479,117.299 219.284,116.843 219.284,116.322 L219.284,110.26 C219.284,109.353 219.705,108.77 220.549,108.51 L225.143,106.744 L225.143,91.0254 C225.143,89.7858 225.763,89.166 227.002,89.166 C228.242,89.166 228.862,89.7858 228.862,91.0254 L228.862,105.478 L237.159,102.353 L237.159,86.541 C237.159,85.3014 237.776,84.6816 239.01,84.6816 C240.244,84.6816 240.862,85.3014 240.862,86.541 L240.862,101.088 L244.096,99.916 C244.159,99.8535 244.383,99.8222 244.768,99.8222 C245.226,99.8222 245.716,100.015 246.237,100.4 C246.633,100.796 246.83,101.255 246.83,101.775 L246.83,107.822 C246.83,108.739 246.372,109.359 245.455,109.682 L240.862,111.244 L240.862,127.26 L244.096,126.182 C244.159,126.119 244.383,126.088 244.768,126.088 C245.226,126.088 245.716,126.286 246.237,126.682 C246.633,127.067 246.83,127.52 246.83,128.041 L246.83,134.103 C246.83,134.947 246.372,135.531 245.455,135.853 L240.862,137.619 L240.862,153.338 M237.159,112.713 L228.862,115.635 L228.862,131.65 L237.159,128.728 L237.159,112.713 "/>
<path class="" d="M273.807,110.947 C271.463,110.947 269.771,111.76 268.729,113.385 C267.562,114.947 266.979,117.067 266.979,119.744 C266.979,122.807 267.791,125.442 269.416,127.65 C271.041,129.796 272.833,131.296 274.791,132.15 C276.541,132.994 278.396,133.416 280.354,133.416 C282.635,133.416 284.359,132.603 285.526,130.978 C286.63,129.343 287.182,127.223 287.182,124.619 C287.182,121.557 286.369,118.921 284.744,116.713 C283.119,114.63 281.364,113.13 279.479,112.213 C277.583,111.369 275.692,110.947 273.807,110.947 M277.135,108.416 C284.166,108.416 290.026,109.781 294.713,112.51 C299.463,115.249 301.838,118.473 301.838,122.182 C301.838,126.15 299.396,129.406 294.51,131.947 C289.625,134.614 283.833,135.947 277.135,135.947 C270.229,135.947 264.369,134.583 259.557,131.853 C254.734,129.114 252.323,125.89 252.323,122.182 C252.323,118.213 254.797,114.958 259.744,112.416 C264.63,109.749 270.427,108.416 277.135,108.416"/>
<path class="" d="M99.7992,146.588 C99.7992,146.588 99.9971,146.588 100.393,146.588 C100.653,146.525 100.877,146.494 101.065,146.494 C108.356,146.494 114.346,149.067 119.034,154.213 C123.721,159.286 126.065,165.208 126.065,171.978 C126.065,180.385 122.586,187.223 115.627,192.494 C113.804,193.932 111.424,195.103 108.487,196.01 C108.82,200.239 108.987,203.656 108.987,206.26 C108.987,206.781 108.919,208.671 108.784,211.932 C108.523,217.984 106.44,223.223 102.534,227.65 C98.7627,232.015 94.0752,234.197 88.4711,234.197 C83.2002,234.197 78.7106,232.343 75.0023,228.635 C71.2836,224.853 69.4242,220.296 69.4242,214.963 C69.4242,212.161 70.5023,209.781 72.6586,207.822 C74.8669,205.874 77.4346,204.9 80.3617,204.9 C82.9659,204.9 85.1481,205.911 86.9086,207.932 C88.7315,209.817 89.6429,212.161 89.6429,214.963 C89.6429,217.494 88.7315,219.671 86.9086,221.494 C85.0856,223.317 82.9034,224.228 80.3617,224.228 C79.32,224.228 78.3148,224.036 77.3461,223.65 C80.2106,227.88 84.0179,229.994 88.7679,229.994 C93.2575,229.994 96.9346,228.171 99.7992,224.525 C102.799,220.755 104.429,216.359 104.69,211.338 C104.815,208.213 104.877,206.426 104.877,205.978 C104.877,202.333 104.747,199.338 104.487,196.994 C101.237,197.515 98.3409,197.775 95.7992,197.775 C86.7471,197.775 79.0336,194.192 72.6586,187.025 C66.4086,179.796 63.2836,171.202 63.2836,161.244 C63.2836,159.161 63.4763,157.046 63.8617,154.9 C64.2575,153.14 64.7471,151.218 65.3304,149.135 C65.6534,147.958 66.5336,146.067 67.9711,143.463 C68.4919,142.682 69.0778,141.705 69.7289,140.533 C70.3799,139.361 70.8356,138.583 71.0961,138.197 C71.7419,136.895 73.0075,135.135 74.8929,132.916 C75.4138,132.333 75.9528,131.684 76.5101,130.971 C77.0674,130.257 77.5414,129.671 77.932,129.213 C78.3226,128.755 78.6143,128.395 78.807,128.135 C78.9997,127.874 80.4659,126.15 83.2054,122.963 C83.8513,122.307 84.4841,121.606 85.1039,120.861 C85.7237,120.116 86.2289,119.531 86.6195,119.103 C87.0101,118.676 87.3044,118.369 87.5023,118.182 C85.1586,110.432 83.6898,104.244 83.0961,99.6191 C82.6481,95.9108 82.4242,90.8326 82.4242,84.3847 C82.4242,78.7181 83.7263,73.4108 86.3304,68.4629 C88.8617,63.3274 92.4086,59.1295 96.9711,55.8691 C97.2315,55.6712 97.5544,55.5722 97.9398,55.5722 C98.3981,55.5722 98.7263,55.6712 98.9242,55.8691 C102.435,60.0983 105.461,65.5983 108.002,72.3691 C110.606,79.1399 111.909,85.2962 111.909,90.8379 C111.909,97.0879 110.414,102.947 107.424,108.416 C104.039,114.208 99.6742,120.197 94.3304,126.385 C95.695,130.676 97.5179,137.411 99.7992,146.588 M108.096,192.01 C111.481,190.77 114.122,188.656 116.018,185.666 C118.101,182.801 119.143,179.577 119.143,175.994 C119.143,171.369 117.58,167.265 114.455,163.682 C111.258,159.973 107.185,157.89 102.237,157.432 C105.039,171.171 106.992,182.697 108.096,192.01 M70.3148,169.447 C70.3148,175.895 72.919,181.562 78.1273,186.447 C83.4606,191.197 89.4502,193.572 96.0961,193.572 C98.8252,193.572 101.492,193.374 104.096,192.978 C103.054,183.083 101.002,171.234 97.9398,157.432 C94.2315,157.827 91.2731,159.13 89.0648,161.338 C86.9086,163.619 85.8304,166.192 85.8304,169.057 C85.8304,174.005 88.4711,178.01 93.7523,181.072 C94.2002,181.531 94.4242,182.02 94.4242,182.541 C94.4242,183.062 94.2002,183.546 93.7523,183.994 C93.3565,184.452 92.8669,184.682 92.2836,184.682 C92.2211,184.682 91.9294,184.619 91.4086,184.494 C87.6898,182.473 84.8252,179.869 82.8148,176.682 C80.919,173.286 79.9711,169.864 79.9711,166.416 C79.9711,161.926 81.3721,157.859 84.1742,154.213 C87.1013,150.567 90.9086,148.223 95.5961,147.182 C93.7731,139.89 92.2784,134.192 91.1117,130.088 C90.07,131.265 88.8174,132.682 87.3539,134.338 C85.8903,135.994 85.0284,136.989 84.7679,137.322 C82.4242,140.374 80.6325,142.749 79.3929,144.447 C77.1742,147.51 75.544,150.145 74.5023,152.353 C73.3981,154.833 72.4242,157.536 71.5804,160.463 C70.7367,163.265 70.3148,166.26 70.3148,169.447 M102.924,70.1347 C98.0388,72.541 94.2002,75.9889 91.4086,80.4785 C88.544,85.1035 87.1117,90.0826 87.1117,95.416 C87.1117,100.103 88.2836,106.421 90.6273,114.369 C95.3148,108.702 98.8304,103.463 101.174,98.6504 C103.643,93.567 104.877,88.2597 104.877,82.7285 C104.877,78.5618 104.226,74.3639 102.924,70.1347"/>
<path class="" d="M186.955,144.447 C185.268,144.447 183.575,143.796 181.877,142.494 C180.252,141.255 179.44,139.432 179.44,137.025 C179.44,135.005 180.122,133.213 181.487,131.65 C182.789,130.088 184.513,129.307 186.659,129.307 C187.377,129.307 187.836,129.338 188.034,129.4 C185.034,125.567 181.028,123.583 176.018,123.447 C172.247,123.447 169.383,124.52 167.424,126.666 C166.778,127.52 166.195,128.89 165.674,130.775 C165.153,132.661 164.893,134.353 164.893,135.853 C164.758,136.895 164.69,138.978 164.69,142.103 L164.69,152.26 C164.69,155.385 164.758,157.499 164.893,158.603 C165.153,162.843 165.997,165.874 167.424,167.697 C169.445,169.906 172.31,171.01 176.018,171.01 C179.924,171.01 183.247,169.577 185.987,166.713 C188.778,163.911 190.731,160.296 191.846,155.869 C192.034,155.223 192.424,154.9 193.018,154.9 C193.862,154.9 194.284,155.291 194.284,156.072 C194.284,156.531 194.086,157.411 193.69,158.713 C192.784,161.64 190.997,164.728 188.33,167.978 C185.133,171.624 181.028,173.447 176.018,173.447 C173.091,173.447 170.096,173.025 167.034,172.182 C164.044,171.14 161.409,169.708 159.127,167.885 C156.586,165.864 154.601,163.13 153.174,159.682 C151.737,155.911 151.018,151.744 151.018,147.182 C151.018,139.234 153.169,132.916 157.471,128.228 C161.638,123.416 167.82,121.01 176.018,121.01 C181.362,121.01 185.596,122.833 188.721,126.478 C191.971,130.124 193.596,133.739 193.596,137.322 C193.596,139.406 192.945,141.098 191.643,142.4 C190.476,143.765 188.914,144.447 186.955,144.447"/>
</svg>
