<?xml version="1.0" encoding="UTF-8" standalone="no"?>
<svg width="552px" height="557px" viewBox="0 0 552 557"
 xmlns="http://www.w3.org/2000/svg" xmlns:xlink="http://www.w3.org/1999/xlink" version="1.2" baseProfile="tiny">
<title>Sin título-2</title>
<desc>Generated by MuseScore 3.5.0</desc>
<polyline class="" fill="none" stroke="#000000" stroke-width="4.00" stroke-linejoin="bevel" points="59.9918,357.644 59.9918,459.644"/>
<polyline class="" fill="none" stroke="#000000" stroke-width="4.00" stroke-linejoin="bevel" points="59.9918,95.1438 59.9918,358.644"/>
<polyline class="" fill="none" stroke="#000000" stroke-width="2.00" stroke-linejoin="bevel" points="57.9918,358.644 858.848,358.644"/>
<polyline class="" fill="none" stroke="#000000" stroke-width="2.00" stroke-linejoin="bevel" points="57.9918,383.644 858.848,383.644"/>
<polyline class="" fill="none" stroke="#000000" stroke-width="2.00" stroke-linejoin="bevel" points="57.9918,408.644 858.848,408.644"/>
<polyline class="" fill="none" stroke="#000000" stroke-width="2.00" stroke-linejoin="bevel" points="57.9918,433.644 858.848,433.644"/>
<polyline class="" fill="none" stroke="#000000" stroke-width="2.00" stroke-linejoin="bevel" points="57.9918,458.644 858.848,458.644"/>
<polyline class="" fill="none" stroke="#000000" stroke-width="2.00" stroke-linejoin="bevel" points="57.9918,96.1438 858.848,96.1438"/>
<polyline class="" fill="none" stroke="#000000" stroke-width="2.00" stroke-linejoin="bevel" points="57.9918,121.144 858.848,121.144"/>
<polyline class="" fill="none" stroke="#000000" stroke-width="2.00" stroke-linejoin="bevel" points="57.9918,146.144 858.848,146.144"/>
<polyline class="" fill="none" stroke="#000000" stroke-width="2.00" stroke-linejoin="bevel" points="57.9918,171.144 858.848,171.144"/>
<polyline class="" fill="none" stroke="#000000" stroke-width="2.00" stroke-linejoin="bevel" points="57.9918,196.144 858.848,196.144"/>
<path class="" d="M272.367,392.035 L272.367,399.753 C272.367,402.493 272.497,404.675 272.758,406.3 C274.903,404.477 276.435,403.113 277.351,402.206 C278.393,401.165 279.435,399.73 280.476,397.902 C281.518,396.074 282.039,394.248 282.039,392.425 C282.039,390.602 281.648,389.04 280.867,387.738 C280.086,386.436 279.044,385.785 277.742,385.785 C276.179,385.785 274.877,386.373 273.836,387.55 C272.857,388.852 272.367,390.347 272.367,392.035 M268.258,409.91 L266.992,350.441 C267.909,349.92 268.823,349.66 269.734,349.66 C270.646,349.66 271.554,349.92 272.461,350.441 L271.679,384.91 C274.346,382.628 277.409,381.488 280.867,381.488 C283.398,381.488 285.51,382.529 287.203,384.613 C288.896,386.696 289.742,389.076 289.742,391.753 C289.742,393.441 289.19,395.233 288.086,397.128 C287.044,398.878 285.94,400.243 284.773,401.222 C284.117,401.743 282.455,403.045 279.789,405.128 C279.008,405.712 278.08,406.394 277.008,407.175 C275.935,407.956 275.268,408.446 275.008,408.644 C274.549,408.904 274.122,409.425 273.726,410.206 C273.278,410.863 272.758,411.415 272.164,411.863 C271.716,412.259 271.166,412.456 270.515,412.456 C269.864,412.456 269.341,412.227 268.945,411.769 C268.487,411.311 268.258,410.691 268.258,409.91"/>
<path class="" d="M284.872,342.035 L284.872,349.753 C284.872,352.493 285.002,354.675 285.263,356.3 C287.408,354.477 288.94,353.113 289.856,352.206 C290.898,351.165 291.94,349.73 292.981,347.902 C294.023,346.074 294.544,344.248 294.544,342.425 C294.544,340.602 294.153,339.04 293.372,337.738 C292.591,336.436 291.549,335.785 290.247,335.785 C288.684,335.785 287.382,336.373 286.341,337.55 C285.362,338.852 284.872,340.347 284.872,342.035 M280.763,359.91 L279.497,300.441 C280.414,299.92 281.328,299.66 282.239,299.66 C283.151,299.66 284.059,299.92 284.966,300.441 L284.184,334.91 C286.851,332.628 289.914,331.488 293.372,331.488 C295.903,331.488 298.015,332.529 299.708,334.613 C301.401,336.696 302.247,339.076 302.247,341.753 C302.247,343.441 301.695,345.232 300.591,347.128 C299.549,348.878 298.445,350.243 297.278,351.222 C296.622,351.743 294.961,353.045 292.294,355.128 C291.513,355.712 290.586,356.394 289.513,357.175 C288.44,357.956 287.773,358.446 287.513,358.644 C287.054,358.904 286.627,359.425 286.231,360.206 C285.783,360.863 285.263,361.415 284.669,361.863 C284.221,362.259 283.671,362.456 283.02,362.456 C282.369,362.456 281.846,362.227 281.45,361.769 C280.992,361.311 280.763,360.691 280.763,359.91"/>
<path class="" d="M284.872,167.034 L284.872,174.753 C284.872,177.493 285.002,179.675 285.263,181.3 C287.408,179.477 288.94,178.113 289.856,177.206 C290.898,176.165 291.94,174.73 292.981,172.902 C294.023,171.074 294.544,169.248 294.544,167.425 C294.544,165.602 294.153,164.04 293.372,162.738 C292.591,161.435 291.549,160.784 290.247,160.784 C288.684,160.784 287.382,161.373 286.341,162.55 C285.362,163.852 284.872,165.347 284.872,167.034 M280.763,184.909 L279.497,125.441 C280.414,124.92 281.328,124.659 282.239,124.659 C283.151,124.659 284.059,124.92 284.966,125.441 L284.184,159.909 C286.851,157.628 289.914,156.488 293.372,156.488 C295.903,156.488 298.015,157.529 299.708,159.613 C301.401,161.696 302.247,164.076 302.247,166.753 C302.247,168.441 301.695,170.232 300.591,172.128 C299.549,173.878 298.445,175.243 297.278,176.222 C296.622,176.743 294.961,178.045 292.294,180.128 C291.513,180.712 290.586,181.394 289.513,182.175 C288.44,182.956 287.773,183.446 287.513,183.644 C287.054,183.904 286.627,184.425 286.231,185.206 C285.783,185.863 285.263,186.415 284.669,186.863 C284.221,187.258 283.671,187.456 283.02,187.456 C282.369,187.456 281.846,187.227 281.45,186.769 C280.992,186.31 280.763,185.691 280.763,184.909"/>
<path class="" d="M329.434,384.91 C327.091,384.91 325.398,385.722 324.356,387.347 C323.19,388.91 322.606,391.029 322.606,393.706 C322.606,396.769 323.419,399.404 325.044,401.613 C326.669,403.759 328.461,405.259 330.419,406.113 C332.169,406.956 334.023,407.378 335.981,407.378 C338.263,407.378 339.987,406.566 341.153,404.941 C342.257,403.305 342.809,401.186 342.809,398.581 C342.809,395.519 341.997,392.884 340.372,390.675 C338.747,388.592 336.992,387.092 335.106,386.175 C333.211,385.331 331.32,384.91 329.434,384.91 M332.763,382.378 C339.794,382.378 345.653,383.743 350.341,386.472 C355.091,389.212 357.466,392.436 357.466,396.144 C357.466,400.113 355.023,403.368 350.138,405.91 C345.252,408.576 339.461,409.91 332.763,409.91 C325.856,409.91 319.997,408.545 315.184,405.816 C310.362,403.076 307.95,399.852 307.95,396.144 C307.95,392.175 310.424,388.92 315.372,386.378 C320.257,383.712 326.054,382.378 332.763,382.378"/>
<path class="" d="M329.434,334.91 C327.091,334.91 325.398,335.722 324.356,337.347 C323.19,338.91 322.606,341.029 322.606,343.706 C322.606,346.769 323.419,349.404 325.044,351.613 C326.669,353.759 328.461,355.259 330.419,356.113 C332.169,356.956 334.023,357.378 335.981,357.378 C338.263,357.378 339.987,356.566 341.153,354.941 C342.257,353.305 342.809,351.186 342.809,348.581 C342.809,345.519 341.997,342.884 340.372,340.675 C338.747,338.592 336.992,337.092 335.106,336.175 C333.211,335.331 331.32,334.91 329.434,334.91 M332.763,332.378 C339.794,332.378 345.653,333.743 350.341,336.472 C355.091,339.212 357.466,342.436 357.466,346.144 C357.466,350.113 355.023,353.368 350.138,355.91 C345.252,358.576 339.461,359.91 332.763,359.91 C325.856,359.91 319.997,358.545 315.184,355.816 C310.362,353.076 307.95,349.852 307.95,346.144 C307.95,342.175 310.424,338.92 315.372,336.378 C320.257,333.712 326.054,332.378 332.763,332.378"/>
<path class="" d="M329.434,159.909 C327.091,159.909 325.398,160.722 324.356,162.347 C323.19,163.909 322.606,166.029 322.606,168.706 C322.606,171.769 323.419,174.404 325.044,176.613 C326.669,178.758 328.461,180.258 330.419,181.113 C332.169,181.956 334.023,182.378 335.981,182.378 C338.263,182.378 339.987,181.566 341.153,179.941 C342.257,178.305 342.809,176.185 342.809,173.581 C342.809,170.519 341.997,167.883 340.372,165.675 C338.747,163.592 336.992,162.092 335.106,161.175 C333.211,160.331 331.32,159.909 329.434,159.909 M332.763,157.378 C339.794,157.378 345.653,158.743 350.341,161.472 C355.091,164.212 357.466,167.435 357.466,171.144 C357.466,175.113 355.023,178.368 350.138,180.909 C345.252,183.576 339.461,184.909 332.763,184.909 C325.856,184.909 319.997,183.545 315.184,180.816 C310.362,178.076 307.95,174.852 307.95,171.144 C307.95,167.175 310.424,163.92 315.372,161.378 C320.257,158.712 326.054,157.378 332.763,157.378"/>
<path class="" d="M329.434,122.409 C327.091,122.409 325.398,123.222 324.356,124.847 C323.19,126.409 322.606,128.529 322.606,131.206 C322.606,134.269 323.419,136.904 325.044,139.113 C326.669,141.258 328.461,142.758 330.419,143.613 C332.169,144.456 334.023,144.878 335.981,144.878 C338.263,144.878 339.987,144.066 341.153,142.441 C342.257,140.805 342.809,138.685 342.809,136.081 C342.809,133.019 341.997,130.383 340.372,128.175 C338.747,126.092 336.992,124.592 335.106,123.675 C333.211,122.831 331.32,122.409 329.434,122.409 M332.763,119.878 C339.794,119.878 345.653,121.243 350.341,123.972 C355.091,126.712 357.466,129.935 357.466,133.644 C357.466,137.613 355.023,140.868 350.138,143.409 C345.252,146.076 339.461,147.409 332.763,147.409 C325.856,147.409 319.997,146.045 315.184,143.316 C310.362,140.576 307.95,137.352 307.95,133.644 C307.95,129.675 310.424,126.42 315.372,123.878 C320.257,121.212 326.054,119.878 332.763,119.878"/>
<path class="" d="M140.398,374.753 C139.424,373.774 138.937,372.568 138.937,371.136 C138.937,369.704 139.424,368.501 140.398,367.527 C141.372,366.553 142.575,366.066 144.007,366.066 C145.44,366.066 146.645,366.553 147.625,367.527 C148.604,368.501 149.093,369.704 149.093,371.136 C149.093,372.568 148.604,373.774 147.625,374.753 C146.645,375.732 145.44,376.222 144.007,376.222 C142.575,376.222 141.372,375.732 140.398,374.753 M140.398,399.761 C139.424,398.787 138.937,397.584 138.937,396.152 C138.937,394.719 139.424,393.514 140.398,392.535 C141.372,391.555 142.575,391.066 144.007,391.066 C145.44,391.066 146.645,391.555 147.625,392.535 C148.604,393.514 149.093,394.719 149.093,396.152 C149.093,397.584 148.604,398.787 147.625,399.761 C146.645,400.735 145.44,401.222 144.007,401.222 C142.575,401.222 141.372,400.735 140.398,399.761 M106.515,357.378 C115.172,357.378 122.265,359.555 127.797,363.91 C133.14,368.472 135.812,374.66 135.812,382.472 C135.812,387.743 134.77,392.561 132.687,396.925 C130.729,401.488 128.156,405.524 124.968,409.035 C121.708,412.618 117.77,416.003 113.156,419.191 C108.656,422.316 104.031,425.118 99.2809,427.597 C89.583,432.472 84.2444,434.91 83.2653,434.91 C82.4215,434.91 81.9996,434.488 81.9996,433.644 C81.9996,433.321 82.1299,433.029 82.3903,432.769 C85.7132,430.811 89.7809,428.305 94.5934,425.253 C97.7184,423.232 101.364,420.43 105.531,416.847 C109.573,413.462 112.698,410.274 114.906,407.285 C117.187,404.347 119.27,400.701 121.156,396.347 C122.781,391.982 123.593,387.68 123.593,383.441 C123.593,377.128 122.031,371.628 118.906,366.941 C115.781,362.253 111.651,359.91 106.515,359.91 C102.869,359.91 99.7444,361.081 97.1403,363.425 C94.3382,365.831 92.3174,368.857 91.0778,372.503 C92.3174,371.982 93.458,371.722 94.4996,371.722 C97.2288,371.722 99.5726,372.701 101.531,374.66 C103.479,376.743 104.453,379.118 104.453,381.785 C104.453,384.587 103.51,387.097 101.625,389.316 C99.6038,391.326 97.2288,392.331 94.4996,392.331 C91.5726,392.331 88.9371,391.326 86.5934,389.316 C84.3746,387.097 83.2653,384.587 83.2653,381.785 C83.2653,375.076 85.5465,369.347 90.109,364.597 C94.5986,359.785 100.067,357.378 106.515,357.378"/>
<path class="" d="M119.984,145.55 C119.984,145.55 120.182,145.55 120.578,145.55 C120.838,145.488 121.062,145.456 121.25,145.456 C128.541,145.456 134.531,148.029 139.218,153.175 C143.906,158.248 146.25,164.17 146.25,170.941 C146.25,179.347 142.77,186.185 135.812,191.456 C133.989,192.894 131.609,194.066 128.672,194.972 C129.005,199.201 129.172,202.618 129.172,205.222 C129.172,205.743 129.104,207.633 128.968,210.894 C128.708,216.946 126.625,222.185 122.718,226.613 C118.948,230.977 114.26,233.159 108.656,233.159 C103.385,233.159 98.8955,231.305 95.1871,227.597 C91.4684,223.816 89.609,219.258 89.609,213.925 C89.609,211.123 90.6871,208.743 92.8434,206.784 C95.0517,204.837 97.6194,203.863 100.547,203.863 C103.151,203.863 105.333,204.873 107.093,206.894 C108.916,208.779 109.828,211.123 109.828,213.925 C109.828,216.456 108.916,218.633 107.093,220.456 C105.27,222.279 103.088,223.191 100.547,223.191 C99.5049,223.191 98.4996,222.998 97.5309,222.613 C100.395,226.842 104.203,228.956 108.953,228.956 C113.442,228.956 117.119,227.133 119.984,223.488 C122.984,219.717 124.614,215.321 124.875,210.3 C125,207.175 125.062,205.389 125.062,204.941 C125.062,201.295 124.932,198.3 124.672,195.956 C121.422,196.477 118.526,196.738 115.984,196.738 C106.932,196.738 99.2184,193.154 92.8434,185.988 C86.5934,178.758 83.4684,170.165 83.4684,160.206 C83.4684,158.123 83.6611,156.008 84.0465,153.863 C84.4424,152.102 84.9319,150.18 85.5153,148.097 C85.8382,146.92 86.7184,145.029 88.1559,142.425 C88.6767,141.644 89.2627,140.667 89.9137,139.495 C90.5648,138.324 91.0205,137.545 91.2809,137.159 C91.9267,135.857 93.1924,134.097 95.0778,131.878 C95.5986,131.295 96.1377,130.646 96.695,129.933 C97.2523,129.219 97.7262,128.633 98.1168,128.175 C98.5075,127.717 98.7991,127.357 98.9918,127.097 C99.1845,126.837 100.651,125.113 103.39,121.925 C104.036,121.269 104.669,120.568 105.289,119.824 C105.909,119.079 106.414,118.493 106.804,118.066 C107.195,117.639 107.489,117.331 107.687,117.144 C105.343,109.394 103.875,103.206 103.281,98.5813 C102.833,94.873 102.609,89.7949 102.609,83.3469 C102.609,77.6803 103.911,72.373 106.515,67.4251 C109.047,62.2897 112.593,58.0917 117.156,54.8313 C117.416,54.6334 117.739,54.5344 118.125,54.5344 C118.583,54.5344 118.911,54.6334 119.109,54.8313 C122.619,59.0605 125.645,64.5605 128.187,71.3313 C130.791,78.1022 132.093,84.2584 132.093,89.8001 C132.093,96.0501 130.599,101.909 127.609,107.378 C124.224,113.17 119.859,119.159 114.515,125.347 C115.88,129.639 117.703,136.373 119.984,145.55 M128.281,190.972 C131.666,189.732 134.307,187.618 136.203,184.628 C138.286,181.764 139.328,178.54 139.328,174.956 C139.328,170.331 137.765,166.227 134.64,162.644 C131.442,158.935 127.369,156.852 122.422,156.394 C125.224,170.133 127.177,181.659 128.281,190.972 M90.4996,168.409 C90.4996,174.857 93.1038,180.524 98.3121,185.409 C103.645,190.159 109.635,192.534 116.281,192.534 C119.01,192.534 121.677,192.337 124.281,191.941 C123.239,182.045 121.187,170.196 118.125,156.394 C114.416,156.79 111.458,158.092 109.25,160.3 C107.093,162.581 106.015,165.154 106.015,168.019 C106.015,172.967 108.656,176.972 113.937,180.034 C114.385,180.493 114.609,180.982 114.609,181.503 C114.609,182.024 114.385,182.508 113.937,182.956 C113.541,183.415 113.052,183.644 112.468,183.644 C112.406,183.644 112.114,183.581 111.593,183.456 C107.875,181.435 105.01,178.831 103,175.644 C101.104,172.248 100.156,168.826 100.156,165.378 C100.156,160.889 101.557,156.821 104.359,153.175 C107.286,149.529 111.093,147.185 115.781,146.144 C113.958,138.852 112.463,133.154 111.297,129.05 C110.255,130.227 109.002,131.644 107.539,133.3 C106.075,134.956 105.213,135.951 104.953,136.284 C102.609,139.337 100.817,141.712 99.5778,143.409 C97.359,146.472 95.7288,149.107 94.6871,151.316 C93.583,153.795 92.609,156.498 91.7653,159.425 C90.9215,162.227 90.4996,165.222 90.4996,168.409 M123.109,69.0969 C118.224,71.5032 114.385,74.9511 111.593,79.4407 C108.729,84.0657 107.297,89.0449 107.297,94.3782 C107.297,99.0657 108.468,105.383 110.812,113.331 C115.5,107.665 119.015,102.425 121.359,97.6126 C123.828,92.5292 125.062,87.2219 125.062,81.6907 C125.062,77.524 124.411,73.3261 123.109,69.0969"/>
<path class="" d="M209.859,405.91 C208.172,405.91 206.479,405.259 204.781,403.956 C203.156,402.717 202.343,400.894 202.343,398.488 C202.343,396.467 203.026,394.675 204.39,393.113 C205.692,391.55 207.416,390.769 209.562,390.769 C210.281,390.769 210.739,390.8 210.937,390.863 C207.937,387.029 203.932,385.045 198.922,384.91 C195.151,384.91 192.286,385.983 190.328,388.128 C189.682,388.983 189.099,390.352 188.578,392.238 C188.057,394.123 187.797,395.816 187.797,397.316 C187.661,398.358 187.593,400.441 187.593,403.566 L187.593,413.722 C187.593,416.847 187.661,418.962 187.797,420.066 C188.057,424.305 188.901,427.337 190.328,429.16 C192.349,431.368 195.213,432.472 198.922,432.472 C202.828,432.472 206.151,431.04 208.89,428.175 C211.682,425.373 213.635,421.759 214.75,417.331 C214.937,416.686 215.328,416.363 215.922,416.363 C216.765,416.363 217.187,416.753 217.187,417.535 C217.187,417.993 216.989,418.873 216.593,420.175 C215.687,423.102 213.901,426.191 211.234,429.441 C208.036,433.087 203.932,434.91 198.922,434.91 C195.994,434.91 193,434.488 189.937,433.644 C186.948,432.602 184.312,431.17 182.031,429.347 C179.489,427.326 177.505,424.592 176.078,421.144 C174.64,417.373 173.922,413.206 173.922,408.644 C173.922,400.696 176.073,394.378 180.375,389.691 C184.541,384.878 190.724,382.472 198.922,382.472 C204.265,382.472 208.5,384.295 211.625,387.941 C214.875,391.587 216.5,395.201 216.5,398.785 C216.5,400.868 215.849,402.561 214.547,403.863 C213.38,405.227 211.817,405.91 209.859,405.91"/>
<path class="" d="M209.859,143.409 C208.172,143.409 206.479,142.758 204.781,141.456 C203.156,140.217 202.343,138.394 202.343,135.988 C202.343,133.967 203.026,132.175 204.39,130.613 C205.692,129.05 207.416,128.269 209.562,128.269 C210.281,128.269 210.739,128.3 210.937,128.363 C207.937,124.529 203.932,122.545 198.922,122.409 C195.151,122.409 192.286,123.482 190.328,125.628 C189.682,126.482 189.099,127.852 188.578,129.738 C188.057,131.623 187.797,133.316 187.797,134.816 C187.661,135.857 187.593,137.941 187.593,141.066 L187.593,151.222 C187.593,154.347 187.661,156.462 187.797,157.566 C188.057,161.805 188.901,164.837 190.328,166.659 C192.349,168.868 195.213,169.972 198.922,169.972 C202.828,169.972 206.151,168.54 208.89,165.675 C211.682,162.873 213.635,159.258 214.75,154.831 C214.937,154.185 215.328,153.863 215.922,153.863 C216.765,153.863 217.187,154.253 217.187,155.034 C217.187,155.493 216.989,156.373 216.593,157.675 C215.687,160.602 213.901,163.691 211.234,166.941 C208.036,170.587 203.932,172.409 198.922,172.409 C195.994,172.409 193,171.988 189.937,171.144 C186.948,170.102 184.312,168.67 182.031,166.847 C179.489,164.826 177.505,162.092 176.078,158.644 C174.64,154.873 173.922,150.706 173.922,146.144 C173.922,138.196 176.073,131.878 180.375,127.191 C184.541,122.378 190.724,119.972 198.922,119.972 C204.265,119.972 208.5,121.795 211.625,125.441 C214.875,129.087 216.5,132.701 216.5,136.284 C216.5,138.368 215.849,140.06 214.547,141.363 C213.38,142.727 211.817,143.409 209.859,143.409"/>
<path class="" fill-rule="evenodd" d="M47.5347,225.112 C47.5347,195.908 27.4204,167.521 27.4204,139.542 C27.4204,125.45 32.9061,111.767 49.8204,99.5135 C50.049,99.3603 50.1632,99.105 50.1632,98.9519 C50.1632,98.4924 48.9061,98.0839 47.9918,98.0839 C47.5347,98.0839 46.7347,98.135 46.1632,98.4924 C24.2204,114.218 16.9061,132.394 16.9061,150.774 C16.9061,180.387 38.3918,208.978 38.3918,237.366 C38.3918,251.457 32.9061,264.732 15.9918,276.985 L15.9918,277.394 L15.9918,277.802 C32.9061,290.056 38.3918,303.331 38.3918,317.422 C38.3918,345.809 16.9061,374.401 16.9061,404.014 C16.9061,422.394 24.2204,440.57 46.1632,456.295 C46.7347,456.653 47.5347,456.704 47.9918,456.704 C48.9061,456.704 50.1632,456.295 50.1632,455.836 C50.1632,455.683 50.049,455.427 49.8204,455.274 C32.9061,443.021 27.4204,429.338 27.4204,415.246 C27.4204,387.267 47.5347,358.88 47.5347,329.676 C47.5347,311.091 40.2204,293.323 18.7347,277.394 C40.2204,261.464 47.5347,243.697 47.5347,225.112"/>
</svg>
