<?xml version="1.0" encoding="UTF-8" standalone="no"?>
<svg width="552px" height="557px" viewBox="0 0 552 557"
 xmlns="http://www.w3.org/2000/svg" xmlns:xlink="http://www.w3.org/1999/xlink" version="1.2" baseProfile="tiny">
<title>Sin título-2</title>
<desc>Generated by MuseScore 3.5.0</desc>
<polyline class="" fill="none" stroke="#000000" stroke-width="4.00" stroke-linejoin="bevel" points="59.9918,357.644 59.9918,459.644"/>
<polyline class="" fill="none" stroke="#000000" stroke-width="4.00" stroke-linejoin="bevel" points="59.9918,95.1438 59.9918,358.644"/>
<polyline class="" fill="none" stroke="#000000" stroke-width="2.00" stroke-linejoin="bevel" points="57.9918,358.644 909.478,358.644"/>
<polyline class="" fill="none" stroke="#000000" stroke-width="2.00" stroke-linejoin="bevel" points="57.9918,383.644 909.478,383.644"/>
<polyline class="" fill="none" stroke="#000000" stroke-width="2.00" stroke-linejoin="bevel" points="57.9918,408.644 909.478,408.644"/>
<polyline class="" fill="none" stroke="#000000" stroke-width="2.00" stroke-linejoin="bevel" points="57.9918,433.644 909.478,433.644"/>
<polyline class="" fill="none" stroke="#000000" stroke-width="2.00" stroke-linejoin="bevel" points="57.9918,458.644 909.478,458.644"/>
<polyline class="" fill="none" stroke="#000000" stroke-width="2.00" stroke-linejoin="bevel" points="57.9918,96.1438 909.478,96.1438"/>
<polyline class="" fill="none" stroke="#000000" stroke-width="2.00" stroke-linejoin="bevel" points="57.9918,121.144 909.478,121.144"/>
<polyline class="" fill="none" stroke="#000000" stroke-width="2.00" stroke-linejoin="bevel" points="57.9918,146.144 909.478,146.144"/>
<polyline class="" fill="none" stroke="#000000" stroke-width="2.00" stroke-linejoin="bevel" points="57.9918,171.144 909.478,171.144"/>
<polyline class="" fill="none" stroke="#000000" stroke-width="2.00" stroke-linejoin="bevel" points="57.9918,196.144 909.478,196.144"/>
<path class="" d="M288.765,414.8 C288.765,416.04 288.148,416.66 286.914,416.66 C285.679,416.66 285.062,416.04 285.062,414.8 L285.062,400.347 L276.765,403.472 L276.765,419.285 C276.765,420.524 276.146,421.144 274.906,421.144 C273.666,421.144 273.047,420.524 273.047,419.285 L273.047,404.738 L269.922,405.91 C269.859,405.972 269.599,406.003 269.14,406.003 C268.62,406.003 268.164,405.808 267.773,405.417 C267.383,405.027 267.187,404.571 267.187,404.05 L267.187,398.003 C267.187,397.024 267.609,396.404 268.453,396.144 L273.047,394.581 L273.047,378.566 L269.922,379.644 C269.859,379.706 269.599,379.738 269.14,379.738 C268.62,379.738 268.164,379.542 267.773,379.152 C267.383,378.761 267.187,378.305 267.187,377.785 L267.187,371.722 C267.187,370.816 267.609,370.232 268.453,369.972 L273.047,368.206 L273.047,352.488 C273.047,351.248 273.666,350.628 274.906,350.628 C276.146,350.628 276.765,351.248 276.765,352.488 L276.765,366.941 L285.062,363.816 L285.062,348.003 C285.062,346.764 285.679,346.144 286.914,346.144 C288.148,346.144 288.765,346.764 288.765,348.003 L288.765,362.55 L292,361.378 C292.062,361.316 292.286,361.285 292.672,361.285 C293.13,361.285 293.62,361.477 294.14,361.863 C294.536,362.259 294.734,362.717 294.734,363.238 L294.734,369.285 C294.734,370.201 294.276,370.821 293.359,371.144 L288.765,372.706 L288.765,388.722 L292,387.644 C292.062,387.581 292.286,387.55 292.672,387.55 C293.13,387.55 293.62,387.748 294.14,388.144 C294.536,388.529 294.734,388.982 294.734,389.503 L294.734,395.566 C294.734,396.41 294.276,396.993 293.359,397.316 L288.765,399.081 L288.765,414.8 M285.062,374.175 L276.765,377.097 L276.765,393.113 L285.062,390.191 L285.062,374.175 "/>
<path class="" d="M321.804,389.8 C321.804,391.04 321.187,391.66 319.953,391.66 C318.719,391.66 318.101,391.04 318.101,389.8 L318.101,375.347 L309.804,378.472 L309.804,394.285 C309.804,395.524 309.185,396.144 307.945,396.144 C306.706,396.144 306.086,395.524 306.086,394.285 L306.086,379.738 L302.961,380.91 C302.898,380.972 302.638,381.003 302.179,381.003 C301.659,381.003 301.203,380.808 300.812,380.417 C300.422,380.027 300.226,379.571 300.226,379.05 L300.226,373.003 C300.226,372.024 300.648,371.404 301.492,371.144 L306.086,369.581 L306.086,353.566 L302.961,354.644 C302.898,354.706 302.638,354.738 302.179,354.738 C301.659,354.738 301.203,354.542 300.812,354.152 C300.422,353.761 300.226,353.305 300.226,352.785 L300.226,346.722 C300.226,345.816 300.648,345.232 301.492,344.972 L306.086,343.206 L306.086,327.488 C306.086,326.248 306.706,325.628 307.945,325.628 C309.185,325.628 309.804,326.248 309.804,327.488 L309.804,341.941 L318.101,338.816 L318.101,323.003 C318.101,321.764 318.719,321.144 319.953,321.144 C321.187,321.144 321.804,321.764 321.804,323.003 L321.804,337.55 L325.039,336.378 C325.101,336.316 325.325,336.285 325.711,336.285 C326.169,336.285 326.659,336.477 327.179,336.863 C327.575,337.259 327.773,337.717 327.773,338.238 L327.773,344.285 C327.773,345.201 327.315,345.821 326.398,346.144 L321.804,347.706 L321.804,363.722 L325.039,362.644 C325.101,362.581 325.325,362.55 325.711,362.55 C326.169,362.55 326.659,362.748 327.179,363.144 C327.575,363.529 327.773,363.982 327.773,364.503 L327.773,370.566 C327.773,371.41 327.315,371.993 326.398,372.316 L321.804,374.081 L321.804,389.8 M318.101,349.175 L309.804,352.097 L309.804,368.113 L318.101,365.191 L318.101,349.175 "/>
<path class="" d="M288.765,227.3 C288.765,228.54 288.148,229.159 286.914,229.159 C285.679,229.159 285.062,228.54 285.062,227.3 L285.062,212.847 L276.765,215.972 L276.765,231.784 C276.765,233.024 276.146,233.644 274.906,233.644 C273.666,233.644 273.047,233.024 273.047,231.784 L273.047,217.238 L269.922,218.409 C269.859,218.472 269.599,218.503 269.14,218.503 C268.62,218.503 268.164,218.308 267.773,217.917 C267.383,217.527 267.187,217.071 267.187,216.55 L267.187,210.503 C267.187,209.524 267.609,208.904 268.453,208.644 L273.047,207.081 L273.047,191.066 L269.922,192.144 C269.859,192.206 269.599,192.238 269.14,192.238 C268.62,192.238 268.164,192.042 267.773,191.652 C267.383,191.261 267.187,190.805 267.187,190.284 L267.187,184.222 C267.187,183.316 267.609,182.732 268.453,182.472 L273.047,180.706 L273.047,164.988 C273.047,163.748 273.666,163.128 274.906,163.128 C276.146,163.128 276.765,163.748 276.765,164.988 L276.765,179.441 L285.062,176.316 L285.062,160.503 C285.062,159.264 285.679,158.644 286.914,158.644 C288.148,158.644 288.765,159.264 288.765,160.503 L288.765,175.05 L292,173.878 C292.062,173.816 292.286,173.784 292.672,173.784 C293.13,173.784 293.62,173.977 294.14,174.363 C294.536,174.758 294.734,175.217 294.734,175.738 L294.734,181.784 C294.734,182.701 294.276,183.321 293.359,183.644 L288.765,185.206 L288.765,201.222 L292,200.144 C292.062,200.081 292.286,200.05 292.672,200.05 C293.13,200.05 293.62,200.248 294.14,200.644 C294.536,201.029 294.734,201.482 294.734,202.003 L294.734,208.066 C294.734,208.909 294.276,209.493 293.359,209.816 L288.765,211.581 L288.765,227.3 M285.062,186.675 L276.765,189.597 L276.765,205.613 L285.062,202.691 L285.062,186.675 "/>
<path class="" d="M321.804,164.8 C321.804,166.04 321.187,166.659 319.953,166.659 C318.719,166.659 318.101,166.04 318.101,164.8 L318.101,150.347 L309.804,153.472 L309.804,169.284 C309.804,170.524 309.185,171.144 307.945,171.144 C306.706,171.144 306.086,170.524 306.086,169.284 L306.086,154.738 L302.961,155.909 C302.898,155.972 302.638,156.003 302.179,156.003 C301.659,156.003 301.203,155.808 300.812,155.417 C300.422,155.027 300.226,154.571 300.226,154.05 L300.226,148.003 C300.226,147.024 300.648,146.404 301.492,146.144 L306.086,144.581 L306.086,128.566 L302.961,129.644 C302.898,129.706 302.638,129.738 302.179,129.738 C301.659,129.738 301.203,129.542 300.812,129.152 C300.422,128.761 300.226,128.305 300.226,127.784 L300.226,121.722 C300.226,120.816 300.648,120.232 301.492,119.972 L306.086,118.206 L306.086,102.488 C306.086,101.248 306.706,100.628 307.945,100.628 C309.185,100.628 309.804,101.248 309.804,102.488 L309.804,116.941 L318.101,113.816 L318.101,98.0032 C318.101,96.7636 318.719,96.1438 319.953,96.1438 C321.187,96.1438 321.804,96.7636 321.804,98.0032 L321.804,112.55 L325.039,111.378 C325.101,111.316 325.325,111.284 325.711,111.284 C326.169,111.284 326.659,111.477 327.179,111.863 C327.575,112.258 327.773,112.717 327.773,113.238 L327.773,119.284 C327.773,120.201 327.315,120.821 326.398,121.144 L321.804,122.706 L321.804,138.722 L325.039,137.644 C325.101,137.581 325.325,137.55 325.711,137.55 C326.169,137.55 326.659,137.748 327.179,138.144 C327.575,138.529 327.773,138.982 327.773,139.503 L327.773,145.566 C327.773,146.409 327.315,146.993 326.398,147.316 L321.804,149.081 L321.804,164.8 M318.101,124.175 L309.804,127.097 L309.804,143.113 L318.101,140.191 L318.101,124.175 "/>
<path class="" d="M354.75,372.41 C352.406,372.41 350.713,373.222 349.672,374.847 C348.505,376.41 347.922,378.529 347.922,381.206 C347.922,384.269 348.734,386.904 350.359,389.113 C351.984,391.259 353.776,392.759 355.734,393.613 C357.484,394.456 359.338,394.878 361.297,394.878 C363.578,394.878 365.302,394.066 366.469,392.441 C367.573,390.805 368.125,388.686 368.125,386.081 C368.125,383.019 367.312,380.384 365.687,378.175 C364.062,376.092 362.307,374.592 360.422,373.675 C358.526,372.831 356.635,372.41 354.75,372.41 M358.078,369.878 C365.109,369.878 370.969,371.243 375.656,373.972 C380.406,376.712 382.781,379.936 382.781,383.644 C382.781,387.613 380.338,390.868 375.453,393.41 C370.568,396.076 364.776,397.41 358.078,397.41 C351.172,397.41 345.312,396.045 340.5,393.316 C335.677,390.576 333.265,387.352 333.265,383.644 C333.265,379.675 335.739,376.42 340.687,373.878 C345.573,371.212 351.37,369.878 358.078,369.878"/>
<path class="" d="M354.75,347.41 C352.406,347.41 350.713,348.222 349.672,349.847 C348.505,351.41 347.922,353.529 347.922,356.206 C347.922,359.269 348.734,361.904 350.359,364.113 C351.984,366.259 353.776,367.759 355.734,368.613 C357.484,369.456 359.338,369.878 361.297,369.878 C363.578,369.878 365.302,369.066 366.469,367.441 C367.573,365.805 368.125,363.686 368.125,361.081 C368.125,358.019 367.312,355.384 365.687,353.175 C364.062,351.092 362.307,349.592 360.422,348.675 C358.526,347.831 356.635,347.41 354.75,347.41 M358.078,344.878 C365.109,344.878 370.969,346.243 375.656,348.972 C380.406,351.712 382.781,354.936 382.781,358.644 C382.781,362.613 380.338,365.868 375.453,368.41 C370.568,371.076 364.776,372.41 358.078,372.41 C351.172,372.41 345.312,371.045 340.5,368.316 C335.677,365.576 333.265,362.352 333.265,358.644 C333.265,354.675 335.739,351.42 340.687,348.878 C345.573,346.212 351.37,344.878 358.078,344.878"/>
<path class="" d="M354.75,184.909 C352.406,184.909 350.713,185.722 349.672,187.347 C348.505,188.909 347.922,191.029 347.922,193.706 C347.922,196.769 348.734,199.404 350.359,201.613 C351.984,203.758 353.776,205.258 355.734,206.113 C357.484,206.956 359.338,207.378 361.297,207.378 C363.578,207.378 365.302,206.566 366.469,204.941 C367.573,203.305 368.125,201.186 368.125,198.581 C368.125,195.519 367.312,192.883 365.687,190.675 C364.062,188.592 362.307,187.092 360.422,186.175 C358.526,185.331 356.635,184.909 354.75,184.909 M358.078,182.378 C365.109,182.378 370.969,183.743 375.656,186.472 C380.406,189.212 382.781,192.436 382.781,196.144 C382.781,200.113 380.338,203.368 375.453,205.909 C370.568,208.576 364.776,209.909 358.078,209.909 C351.172,209.909 345.312,208.545 340.5,205.816 C335.677,203.076 333.265,199.852 333.265,196.144 C333.265,192.175 335.739,188.92 340.687,186.378 C345.573,183.712 351.37,182.378 358.078,182.378"/>
<path class="" d="M354.75,122.409 C352.406,122.409 350.713,123.222 349.672,124.847 C348.505,126.409 347.922,128.529 347.922,131.206 C347.922,134.269 348.734,136.904 350.359,139.113 C351.984,141.258 353.776,142.758 355.734,143.613 C357.484,144.456 359.338,144.878 361.297,144.878 C363.578,144.878 365.302,144.066 366.469,142.441 C367.573,140.805 368.125,138.685 368.125,136.081 C368.125,133.019 367.312,130.383 365.687,128.175 C364.062,126.092 362.307,124.592 360.422,123.675 C358.526,122.831 356.635,122.409 354.75,122.409 M358.078,119.878 C365.109,119.878 370.969,121.243 375.656,123.972 C380.406,126.712 382.781,129.935 382.781,133.644 C382.781,137.613 380.338,140.868 375.453,143.409 C370.568,146.076 364.776,147.409 358.078,147.409 C351.172,147.409 345.312,146.045 340.5,143.316 C335.677,140.576 333.265,137.352 333.265,133.644 C333.265,129.675 335.739,126.42 340.687,123.878 C345.573,121.212 351.37,119.878 358.078,119.878"/>
<path class="" d="M140.398,374.753 C139.424,373.774 138.937,372.568 138.937,371.136 C138.937,369.704 139.424,368.501 140.398,367.527 C141.372,366.553 142.575,366.066 144.007,366.066 C145.44,366.066 146.645,366.553 147.625,367.527 C148.604,368.501 149.093,369.704 149.093,371.136 C149.093,372.568 148.604,373.774 147.625,374.753 C146.645,375.732 145.44,376.222 144.007,376.222 C142.575,376.222 141.372,375.732 140.398,374.753 M140.398,399.761 C139.424,398.787 138.937,397.584 138.937,396.152 C138.937,394.719 139.424,393.514 140.398,392.535 C141.372,391.555 142.575,391.066 144.007,391.066 C145.44,391.066 146.645,391.555 147.625,392.535 C148.604,393.514 149.093,394.719 149.093,396.152 C149.093,397.584 148.604,398.787 147.625,399.761 C146.645,400.735 145.44,401.222 144.007,401.222 C142.575,401.222 141.372,400.735 140.398,399.761 M106.515,357.378 C115.172,357.378 122.265,359.555 127.797,363.91 C133.14,368.472 135.812,374.66 135.812,382.472 C135.812,387.743 134.77,392.561 132.687,396.925 C130.729,401.488 128.156,405.524 124.968,409.035 C121.708,412.618 117.77,416.003 113.156,419.191 C108.656,422.316 104.031,425.118 99.2809,427.597 C89.583,432.472 84.2444,434.91 83.2653,434.91 C82.4215,434.91 81.9996,434.488 81.9996,433.644 C81.9996,433.321 82.1299,433.029 82.3903,432.769 C85.7132,430.811 89.7809,428.305 94.5934,425.253 C97.7184,423.232 101.364,420.43 105.531,416.847 C109.573,413.462 112.698,410.274 114.906,407.285 C117.187,404.347 119.27,400.701 121.156,396.347 C122.781,391.982 123.593,387.68 123.593,383.441 C123.593,377.128 122.031,371.628 118.906,366.941 C115.781,362.253 111.651,359.91 106.515,359.91 C102.869,359.91 99.7444,361.081 97.1403,363.425 C94.3382,365.831 92.3174,368.857 91.0778,372.503 C92.3174,371.982 93.458,371.722 94.4996,371.722 C97.2288,371.722 99.5726,372.701 101.531,374.66 C103.479,376.743 104.453,379.118 104.453,381.785 C104.453,384.587 103.51,387.097 101.625,389.316 C99.6038,391.326 97.2288,392.331 94.4996,392.331 C91.5726,392.331 88.9371,391.326 86.5934,389.316 C84.3746,387.097 83.2653,384.587 83.2653,381.785 C83.2653,375.076 85.5465,369.347 90.109,364.597 C94.5986,359.785 100.067,357.378 106.515,357.378"/>
<path class="" d="M119.984,145.55 C119.984,145.55 120.182,145.55 120.578,145.55 C120.838,145.488 121.062,145.456 121.25,145.456 C128.541,145.456 134.531,148.029 139.218,153.175 C143.906,158.248 146.25,164.17 146.25,170.941 C146.25,179.347 142.77,186.185 135.812,191.456 C133.989,192.894 131.609,194.066 128.672,194.972 C129.005,199.201 129.172,202.618 129.172,205.222 C129.172,205.743 129.104,207.633 128.968,210.894 C128.708,216.946 126.625,222.185 122.718,226.613 C118.948,230.977 114.26,233.159 108.656,233.159 C103.385,233.159 98.8955,231.305 95.1871,227.597 C91.4684,223.816 89.609,219.258 89.609,213.925 C89.609,211.123 90.6871,208.743 92.8434,206.784 C95.0517,204.837 97.6194,203.863 100.547,203.863 C103.151,203.863 105.333,204.873 107.093,206.894 C108.916,208.779 109.828,211.123 109.828,213.925 C109.828,216.456 108.916,218.633 107.093,220.456 C105.27,222.279 103.088,223.191 100.547,223.191 C99.5049,223.191 98.4996,222.998 97.5309,222.613 C100.395,226.842 104.203,228.956 108.953,228.956 C113.442,228.956 117.119,227.133 119.984,223.488 C122.984,219.717 124.614,215.321 124.875,210.3 C125,207.175 125.062,205.389 125.062,204.941 C125.062,201.295 124.932,198.3 124.672,195.956 C121.422,196.477 118.526,196.738 115.984,196.738 C106.932,196.738 99.2184,193.154 92.8434,185.988 C86.5934,178.758 83.4684,170.165 83.4684,160.206 C83.4684,158.123 83.6611,156.008 84.0465,153.863 C84.4424,152.102 84.9319,150.18 85.5153,148.097 C85.8382,146.92 86.7184,145.029 88.1559,142.425 C88.6767,141.644 89.2627,140.667 89.9137,139.495 C90.5648,138.324 91.0205,137.545 91.2809,137.159 C91.9267,135.857 93.1924,134.097 95.0778,131.878 C95.5986,131.295 96.1377,130.646 96.695,129.933 C97.2523,129.219 97.7262,128.633 98.1168,128.175 C98.5075,127.717 98.7991,127.357 98.9918,127.097 C99.1845,126.837 100.651,125.113 103.39,121.925 C104.036,121.269 104.669,120.568 105.289,119.824 C105.909,119.079 106.414,118.493 106.804,118.066 C107.195,117.639 107.489,117.331 107.687,117.144 C105.343,109.394 103.875,103.206 103.281,98.5813 C102.833,94.873 102.609,89.7949 102.609,83.3469 C102.609,77.6803 103.911,72.373 106.515,67.4251 C109.047,62.2897 112.593,58.0917 117.156,54.8313 C117.416,54.6334 117.739,54.5344 118.125,54.5344 C118.583,54.5344 118.911,54.6334 119.109,54.8313 C122.619,59.0605 125.645,64.5605 128.187,71.3313 C130.791,78.1022 132.093,84.2584 132.093,89.8001 C132.093,96.0501 130.599,101.909 127.609,107.378 C124.224,113.17 119.859,119.159 114.515,125.347 C115.88,129.639 117.703,136.373 119.984,145.55 M128.281,190.972 C131.666,189.732 134.307,187.618 136.203,184.628 C138.286,181.764 139.328,178.54 139.328,174.956 C139.328,170.331 137.765,166.227 134.64,162.644 C131.442,158.935 127.369,156.852 122.422,156.394 C125.224,170.133 127.177,181.659 128.281,190.972 M90.4996,168.409 C90.4996,174.857 93.1038,180.524 98.3121,185.409 C103.645,190.159 109.635,192.534 116.281,192.534 C119.01,192.534 121.677,192.337 124.281,191.941 C123.239,182.045 121.187,170.196 118.125,156.394 C114.416,156.79 111.458,158.092 109.25,160.3 C107.093,162.581 106.015,165.154 106.015,168.019 C106.015,172.967 108.656,176.972 113.937,180.034 C114.385,180.493 114.609,180.982 114.609,181.503 C114.609,182.024 114.385,182.508 113.937,182.956 C113.541,183.415 113.052,183.644 112.468,183.644 C112.406,183.644 112.114,183.581 111.593,183.456 C107.875,181.435 105.01,178.831 103,175.644 C101.104,172.248 100.156,168.826 100.156,165.378 C100.156,160.889 101.557,156.821 104.359,153.175 C107.286,149.529 111.093,147.185 115.781,146.144 C113.958,138.852 112.463,133.154 111.297,129.05 C110.255,130.227 109.002,131.644 107.539,133.3 C106.075,134.956 105.213,135.951 104.953,136.284 C102.609,139.337 100.817,141.712 99.5778,143.409 C97.359,146.472 95.7288,149.107 94.6871,151.316 C93.583,153.795 92.609,156.498 91.7653,159.425 C90.9215,162.227 90.4996,165.222 90.4996,168.409 M123.109,69.0969 C118.224,71.5032 114.385,74.9511 111.593,79.4407 C108.729,84.0657 107.297,89.0449 107.297,94.3782 C107.297,99.0657 108.468,105.383 110.812,113.331 C115.5,107.665 119.015,102.425 121.359,97.6126 C123.828,92.5292 125.062,87.2219 125.062,81.6907 C125.062,77.524 124.411,73.3261 123.109,69.0969"/>
<path class="" d="M209.859,405.91 C208.172,405.91 206.479,405.259 204.781,403.956 C203.156,402.717 202.343,400.894 202.343,398.488 C202.343,396.467 203.026,394.675 204.39,393.113 C205.692,391.55 207.416,390.769 209.562,390.769 C210.281,390.769 210.739,390.8 210.937,390.863 C207.937,387.029 203.932,385.045 198.922,384.91 C195.151,384.91 192.286,385.983 190.328,388.128 C189.682,388.983 189.099,390.352 188.578,392.238 C188.057,394.123 187.797,395.816 187.797,397.316 C187.661,398.358 187.593,400.441 187.593,403.566 L187.593,413.722 C187.593,416.847 187.661,418.962 187.797,420.066 C188.057,424.305 188.901,427.337 190.328,429.16 C192.349,431.368 195.213,432.472 198.922,432.472 C202.828,432.472 206.151,431.04 208.89,428.175 C211.682,425.373 213.635,421.759 214.75,417.331 C214.937,416.686 215.328,416.363 215.922,416.363 C216.765,416.363 217.187,416.753 217.187,417.535 C217.187,417.993 216.989,418.873 216.593,420.175 C215.687,423.102 213.901,426.191 211.234,429.441 C208.036,433.087 203.932,434.91 198.922,434.91 C195.994,434.91 193,434.488 189.937,433.644 C186.948,432.602 184.312,431.17 182.031,429.347 C179.489,427.326 177.505,424.592 176.078,421.144 C174.64,417.373 173.922,413.206 173.922,408.644 C173.922,400.696 176.073,394.378 180.375,389.691 C184.541,384.878 190.724,382.472 198.922,382.472 C204.265,382.472 208.5,384.295 211.625,387.941 C214.875,391.587 216.5,395.201 216.5,398.785 C216.5,400.868 215.849,402.561 214.547,403.863 C213.38,405.227 211.817,405.91 209.859,405.91"/>
<path class="" d="M209.859,143.409 C208.172,143.409 206.479,142.758 204.781,141.456 C203.156,140.217 202.343,138.394 202.343,135.988 C202.343,133.967 203.026,132.175 204.39,130.613 C205.692,129.05 207.416,128.269 209.562,128.269 C210.281,128.269 210.739,128.3 210.937,128.363 C207.937,124.529 203.932,122.545 198.922,122.409 C195.151,122.409 192.286,123.482 190.328,125.628 C189.682,126.482 189.099,127.852 188.578,129.738 C188.057,131.623 187.797,133.316 187.797,134.816 C187.661,135.857 187.593,137.941 187.593,141.066 L187.593,151.222 C187.593,154.347 187.661,156.462 187.797,157.566 C188.057,161.805 188.901,164.837 190.328,166.659 C192.349,168.868 195.213,169.972 198.922,169.972 C202.828,169.972 206.151,168.54 208.89,165.675 C211.682,162.873 213.635,159.258 214.75,154.831 C214.937,154.185 215.328,153.863 215.922,153.863 C216.765,153.863 217.187,154.253 217.187,155.034 C217.187,155.493 216.989,156.373 216.593,157.675 C215.687,160.602 213.901,163.691 211.234,166.941 C208.036,170.587 203.932,172.409 198.922,172.409 C195.994,172.409 193,171.988 189.937,171.144 C186.948,170.102 184.312,168.67 182.031,166.847 C179.489,164.826 177.505,162.092 176.078,158.644 C174.64,154.873 173.922,150.706 173.922,146.144 C173.922,138.196 176.073,131.878 180.375,127.191 C184.541,122.378 190.724,119.972 198.922,119.972 C204.265,119.972 208.5,121.795 211.625,125.441 C214.875,129.087 216.5,132.701 216.5,136.284 C216.5,138.368 215.849,140.06 214.547,141.363 C213.38,142.727 211.817,143.409 209.859,143.409"/>
<path class="" fill-rule="evenodd" d="M47.5347,225.112 C47.5347,195.908 27.4204,167.521 27.4204,139.542 C27.4204,125.45 32.9061,111.767 49.8204,99.5135 C50.049,99.3603 50.1632,99.105 50.1632,98.9519 C50.1632,98.4924 48.9061,98.0839 47.9918,98.0839 C47.5347,98.0839 46.7347,98.135 46.1632,98.4924 C24.2204,114.218 16.9061,132.394 16.9061,150.774 C16.9061,180.387 38.3918,208.978 38.3918,237.366 C38.3918,251.457 32.9061,264.732 15.9918,276.985 L15.9918,277.394 L15.9918,277.802 C32.9061,290.056 38.3918,303.331 38.3918,317.422 C38.3918,345.809 16.9061,374.401 16.9061,404.014 C16.9061,422.394 24.2204,440.57 46.1632,456.295 C46.7347,456.653 47.5347,456.704 47.9918,456.704 C48.9061,456.704 50.1632,456.295 50.1632,455.836 C50.1632,455.683 50.049,455.427 49.8204,455.274 C32.9061,443.021 27.4204,429.338 27.4204,415.246 C27.4204,387.267 47.5347,358.88 47.5347,329.676 C47.5347,311.091 40.2204,293.323 18.7347,277.394 C40.2204,261.464 47.5347,243.697 47.5347,225.112"/>
</svg>
