<?xml version="1.0" encoding="UTF-8" standalone="no"?>
<svg width="552px" height="557px" viewBox="0 0 552 557"
 xmlns="http://www.w3.org/2000/svg" xmlns:xlink="http://www.w3.org/1999/xlink" version="1.2" baseProfile="tiny">
<title>Sin título-2</title>
<desc>Generated by MuseScore 3.5.0</desc>
<polyline class="" fill="none" stroke="#000000" stroke-width="4.00" stroke-linejoin="bevel" points="59.9918,357.644 59.9918,459.644"/>
<polyline class="" fill="none" stroke="#000000" stroke-width="4.00" stroke-linejoin="bevel" points="59.9918,95.1438 59.9918,358.644"/>
<polyline class="" fill="none" stroke="#000000" stroke-width="2.00" stroke-linejoin="bevel" points="57.9918,358.644 888.359,358.644"/>
<polyline class="" fill="none" stroke="#000000" stroke-width="2.00" stroke-linejoin="bevel" points="57.9918,383.644 888.359,383.644"/>
<polyline class="" fill="none" stroke="#000000" stroke-width="2.00" stroke-linejoin="bevel" points="57.9918,408.644 888.359,408.644"/>
<polyline class="" fill="none" stroke="#000000" stroke-width="2.00" stroke-linejoin="bevel" points="57.9918,433.644 888.359,433.644"/>
<polyline class="" fill="none" stroke="#000000" stroke-width="2.00" stroke-linejoin="bevel" points="57.9918,458.644 888.359,458.644"/>
<polyline class="" fill="none" stroke="#000000" stroke-width="2.00" stroke-linejoin="bevel" points="57.9918,96.1438 888.359,96.1438"/>
<polyline class="" fill="none" stroke="#000000" stroke-width="2.00" stroke-linejoin="bevel" points="57.9918,121.144 888.359,121.144"/>
<polyline class="" fill="none" stroke="#000000" stroke-width="2.00" stroke-linejoin="bevel" points="57.9918,146.144 888.359,146.144"/>
<polyline class="" fill="none" stroke="#000000" stroke-width="2.00" stroke-linejoin="bevel" points="57.9918,171.144 888.359,171.144"/>
<polyline class="" fill="none" stroke="#000000" stroke-width="2.00" stroke-linejoin="bevel" points="57.9918,196.144 888.359,196.144"/>
<path class="" d="M288.672,384.91 C286.328,384.91 284.635,385.722 283.594,387.347 C282.427,388.91 281.844,391.029 281.844,393.706 C281.844,396.769 282.656,399.404 284.281,401.613 C285.906,403.759 287.698,405.259 289.656,406.113 C291.406,406.956 293.26,407.378 295.219,407.378 C297.5,407.378 299.224,406.566 300.39,404.941 C301.495,403.305 302.047,401.186 302.047,398.581 C302.047,395.519 301.234,392.884 299.609,390.675 C297.984,388.592 296.229,387.092 294.344,386.175 C292.448,385.331 290.557,384.91 288.672,384.91 M292,382.378 C299.031,382.378 304.89,383.743 309.578,386.472 C314.328,389.212 316.703,392.436 316.703,396.144 C316.703,400.113 314.26,403.368 309.375,405.91 C304.489,408.576 298.698,409.91 292,409.91 C285.094,409.91 279.234,408.545 274.422,405.816 C269.599,403.076 267.187,399.852 267.187,396.144 C267.187,392.175 269.661,388.92 274.609,386.378 C279.495,383.712 285.291,382.378 292,382.378"/>
<path class="" d="M288.672,359.91 C286.328,359.91 284.635,360.722 283.594,362.347 C282.427,363.91 281.844,366.029 281.844,368.706 C281.844,371.769 282.656,374.404 284.281,376.613 C285.906,378.759 287.698,380.259 289.656,381.113 C291.406,381.956 293.26,382.378 295.219,382.378 C297.5,382.378 299.224,381.566 300.39,379.941 C301.495,378.305 302.047,376.186 302.047,373.581 C302.047,370.519 301.234,367.884 299.609,365.675 C297.984,363.592 296.229,362.092 294.344,361.175 C292.448,360.331 290.557,359.91 288.672,359.91 M292,357.378 C299.031,357.378 304.89,358.743 309.578,361.472 C314.328,364.212 316.703,367.436 316.703,371.144 C316.703,375.113 314.26,378.368 309.375,380.91 C304.489,383.576 298.698,384.91 292,384.91 C285.094,384.91 279.234,383.545 274.422,380.816 C269.599,378.076 267.187,374.852 267.187,371.144 C267.187,367.175 269.661,363.92 274.609,361.378 C279.495,358.712 285.291,357.378 292,357.378"/>
<path class="" d="M288.672,334.91 C286.328,334.91 284.635,335.722 283.594,337.347 C282.427,338.91 281.844,341.029 281.844,343.706 C281.844,346.769 282.656,349.404 284.281,351.613 C285.906,353.759 287.698,355.259 289.656,356.113 C291.406,356.956 293.26,357.378 295.219,357.378 C297.5,357.378 299.224,356.566 300.39,354.941 C301.495,353.305 302.047,351.186 302.047,348.581 C302.047,345.519 301.234,342.884 299.609,340.675 C297.984,338.592 296.229,337.092 294.344,336.175 C292.448,335.331 290.557,334.91 288.672,334.91 M292,332.378 C299.031,332.378 304.89,333.743 309.578,336.472 C314.328,339.212 316.703,342.436 316.703,346.144 C316.703,350.113 314.26,353.368 309.375,355.91 C304.489,358.576 298.698,359.91 292,359.91 C285.094,359.91 279.234,358.545 274.422,355.816 C269.599,353.076 267.187,349.852 267.187,346.144 C267.187,342.175 269.661,338.92 274.609,336.378 C279.495,333.712 285.291,332.378 292,332.378"/>
<path class="" d="M288.672,197.409 C286.328,197.409 284.635,198.222 283.594,199.847 C282.427,201.409 281.844,203.529 281.844,206.206 C281.844,209.269 282.656,211.904 284.281,214.113 C285.906,216.258 287.698,217.758 289.656,218.613 C291.406,219.456 293.26,219.878 295.219,219.878 C297.5,219.878 299.224,219.066 300.39,217.441 C301.495,215.805 302.047,213.686 302.047,211.081 C302.047,208.019 301.234,205.383 299.609,203.175 C297.984,201.092 296.229,199.592 294.344,198.675 C292.448,197.831 290.557,197.409 288.672,197.409 M292,194.878 C299.031,194.878 304.89,196.243 309.578,198.972 C314.328,201.712 316.703,204.936 316.703,208.644 C316.703,212.613 314.26,215.868 309.375,218.409 C304.489,221.076 298.698,222.409 292,222.409 C285.094,222.409 279.234,221.045 274.422,218.316 C269.599,215.576 267.187,212.352 267.187,208.644 C267.187,204.675 269.661,201.42 274.609,198.878 C279.495,196.212 285.291,194.878 292,194.878"/>
<path class="" d="M334.937,184.909 C332.594,184.909 330.901,185.722 329.859,187.347 C328.693,188.909 328.109,191.029 328.109,193.706 C328.109,196.769 328.922,199.404 330.547,201.613 C332.172,203.758 333.963,205.258 335.922,206.113 C337.672,206.956 339.526,207.378 341.484,207.378 C343.765,207.378 345.489,206.566 346.656,204.941 C347.76,203.305 348.312,201.186 348.312,198.581 C348.312,195.519 347.5,192.883 345.875,190.675 C344.25,188.592 342.495,187.092 340.609,186.175 C338.713,185.331 336.823,184.909 334.937,184.909 M338.265,182.378 C345.297,182.378 351.156,183.743 355.844,186.472 C360.594,189.212 362.969,192.436 362.969,196.144 C362.969,200.113 360.526,203.368 355.64,205.909 C350.755,208.576 344.963,209.909 338.265,209.909 C331.359,209.909 325.5,208.545 320.687,205.816 C315.864,203.076 313.453,199.852 313.453,196.144 C313.453,192.175 315.927,188.92 320.875,186.378 C325.76,183.712 331.557,182.378 338.265,182.378"/>
<path class="" d="M288.672,159.909 C286.328,159.909 284.635,160.722 283.594,162.347 C282.427,163.909 281.844,166.029 281.844,168.706 C281.844,171.769 282.656,174.404 284.281,176.613 C285.906,178.758 287.698,180.258 289.656,181.113 C291.406,181.956 293.26,182.378 295.219,182.378 C297.5,182.378 299.224,181.566 300.39,179.941 C301.495,178.305 302.047,176.185 302.047,173.581 C302.047,170.519 301.234,167.883 299.609,165.675 C297.984,163.592 296.229,162.092 294.344,161.175 C292.448,160.331 290.557,159.909 288.672,159.909 M292,157.378 C299.031,157.378 304.89,158.743 309.578,161.472 C314.328,164.212 316.703,167.435 316.703,171.144 C316.703,175.113 314.26,178.368 309.375,180.909 C304.489,183.576 298.698,184.909 292,184.909 C285.094,184.909 279.234,183.545 274.422,180.816 C269.599,178.076 267.187,174.852 267.187,171.144 C267.187,167.175 269.661,163.92 274.609,161.378 C279.495,158.712 285.291,157.378 292,157.378"/>
<path class="" d="M140.398,374.753 C139.424,373.774 138.937,372.568 138.937,371.136 C138.937,369.704 139.424,368.501 140.398,367.527 C141.372,366.553 142.575,366.066 144.007,366.066 C145.44,366.066 146.645,366.553 147.625,367.527 C148.604,368.501 149.093,369.704 149.093,371.136 C149.093,372.568 148.604,373.774 147.625,374.753 C146.645,375.732 145.44,376.222 144.007,376.222 C142.575,376.222 141.372,375.732 140.398,374.753 M140.398,399.761 C139.424,398.787 138.937,397.584 138.937,396.152 C138.937,394.719 139.424,393.514 140.398,392.535 C141.372,391.555 142.575,391.066 144.007,391.066 C145.44,391.066 146.645,391.555 147.625,392.535 C148.604,393.514 149.093,394.719 149.093,396.152 C149.093,397.584 148.604,398.787 147.625,399.761 C146.645,400.735 145.44,401.222 144.007,401.222 C142.575,401.222 141.372,400.735 140.398,399.761 M106.515,357.378 C115.172,357.378 122.265,359.555 127.797,363.91 C133.14,368.472 135.812,374.66 135.812,382.472 C135.812,387.743 134.77,392.561 132.687,396.925 C130.729,401.488 128.156,405.524 124.968,409.035 C121.708,412.618 117.77,416.003 113.156,419.191 C108.656,422.316 104.031,425.118 99.2809,427.597 C89.583,432.472 84.2444,434.91 83.2653,434.91 C82.4215,434.91 81.9996,434.488 81.9996,433.644 C81.9996,433.321 82.1299,433.029 82.3903,432.769 C85.7132,430.811 89.7809,428.305 94.5934,425.253 C97.7184,423.232 101.364,420.43 105.531,416.847 C109.573,413.462 112.698,410.274 114.906,407.285 C117.187,404.347 119.27,400.701 121.156,396.347 C122.781,391.982 123.593,387.68 123.593,383.441 C123.593,377.128 122.031,371.628 118.906,366.941 C115.781,362.253 111.651,359.91 106.515,359.91 C102.869,359.91 99.7444,361.081 97.1403,363.425 C94.3382,365.831 92.3174,368.857 91.0778,372.503 C92.3174,371.982 93.458,371.722 94.4996,371.722 C97.2288,371.722 99.5726,372.701 101.531,374.66 C103.479,376.743 104.453,379.118 104.453,381.785 C104.453,384.587 103.51,387.097 101.625,389.316 C99.6038,391.326 97.2288,392.331 94.4996,392.331 C91.5726,392.331 88.9371,391.326 86.5934,389.316 C84.3746,387.097 83.2653,384.587 83.2653,381.785 C83.2653,375.076 85.5465,369.347 90.109,364.597 C94.5986,359.785 100.067,357.378 106.515,357.378"/>
<path class="" d="M119.984,145.55 C119.984,145.55 120.182,145.55 120.578,145.55 C120.838,145.488 121.062,145.456 121.25,145.456 C128.541,145.456 134.531,148.029 139.218,153.175 C143.906,158.248 146.25,164.17 146.25,170.941 C146.25,179.347 142.77,186.185 135.812,191.456 C133.989,192.894 131.609,194.066 128.672,194.972 C129.005,199.201 129.172,202.618 129.172,205.222 C129.172,205.743 129.104,207.633 128.968,210.894 C128.708,216.946 126.625,222.185 122.718,226.613 C118.948,230.977 114.26,233.159 108.656,233.159 C103.385,233.159 98.8955,231.305 95.1871,227.597 C91.4684,223.816 89.609,219.258 89.609,213.925 C89.609,211.123 90.6871,208.743 92.8434,206.784 C95.0517,204.837 97.6194,203.863 100.547,203.863 C103.151,203.863 105.333,204.873 107.093,206.894 C108.916,208.779 109.828,211.123 109.828,213.925 C109.828,216.456 108.916,218.633 107.093,220.456 C105.27,222.279 103.088,223.191 100.547,223.191 C99.5049,223.191 98.4996,222.998 97.5309,222.613 C100.395,226.842 104.203,228.956 108.953,228.956 C113.442,228.956 117.119,227.133 119.984,223.488 C122.984,219.717 124.614,215.321 124.875,210.3 C125,207.175 125.062,205.389 125.062,204.941 C125.062,201.295 124.932,198.3 124.672,195.956 C121.422,196.477 118.526,196.738 115.984,196.738 C106.932,196.738 99.2184,193.154 92.8434,185.988 C86.5934,178.758 83.4684,170.165 83.4684,160.206 C83.4684,158.123 83.6611,156.008 84.0465,153.863 C84.4424,152.102 84.9319,150.18 85.5153,148.097 C85.8382,146.92 86.7184,145.029 88.1559,142.425 C88.6767,141.644 89.2627,140.667 89.9137,139.495 C90.5648,138.324 91.0205,137.545 91.2809,137.159 C91.9267,135.857 93.1924,134.097 95.0778,131.878 C95.5986,131.295 96.1377,130.646 96.695,129.933 C97.2523,129.219 97.7262,128.633 98.1168,128.175 C98.5075,127.717 98.7991,127.357 98.9918,127.097 C99.1845,126.837 100.651,125.113 103.39,121.925 C104.036,121.269 104.669,120.568 105.289,119.824 C105.909,119.079 106.414,118.493 106.804,118.066 C107.195,117.639 107.489,117.331 107.687,117.144 C105.343,109.394 103.875,103.206 103.281,98.5813 C102.833,94.873 102.609,89.7949 102.609,83.3469 C102.609,77.6803 103.911,72.373 106.515,67.4251 C109.047,62.2897 112.593,58.0917 117.156,54.8313 C117.416,54.6334 117.739,54.5344 118.125,54.5344 C118.583,54.5344 118.911,54.6334 119.109,54.8313 C122.619,59.0605 125.645,64.5605 128.187,71.3313 C130.791,78.1022 132.093,84.2584 132.093,89.8001 C132.093,96.0501 130.599,101.909 127.609,107.378 C124.224,113.17 119.859,119.159 114.515,125.347 C115.88,129.639 117.703,136.373 119.984,145.55 M128.281,190.972 C131.666,189.732 134.307,187.618 136.203,184.628 C138.286,181.764 139.328,178.54 139.328,174.956 C139.328,170.331 137.765,166.227 134.64,162.644 C131.442,158.935 127.369,156.852 122.422,156.394 C125.224,170.133 127.177,181.659 128.281,190.972 M90.4996,168.409 C90.4996,174.857 93.1038,180.524 98.3121,185.409 C103.645,190.159 109.635,192.534 116.281,192.534 C119.01,192.534 121.677,192.337 124.281,191.941 C123.239,182.045 121.187,170.196 118.125,156.394 C114.416,156.79 111.458,158.092 109.25,160.3 C107.093,162.581 106.015,165.154 106.015,168.019 C106.015,172.967 108.656,176.972 113.937,180.034 C114.385,180.493 114.609,180.982 114.609,181.503 C114.609,182.024 114.385,182.508 113.937,182.956 C113.541,183.415 113.052,183.644 112.468,183.644 C112.406,183.644 112.114,183.581 111.593,183.456 C107.875,181.435 105.01,178.831 103,175.644 C101.104,172.248 100.156,168.826 100.156,165.378 C100.156,160.889 101.557,156.821 104.359,153.175 C107.286,149.529 111.093,147.185 115.781,146.144 C113.958,138.852 112.463,133.154 111.297,129.05 C110.255,130.227 109.002,131.644 107.539,133.3 C106.075,134.956 105.213,135.951 104.953,136.284 C102.609,139.337 100.817,141.712 99.5778,143.409 C97.359,146.472 95.7288,149.107 94.6871,151.316 C93.583,153.795 92.609,156.498 91.7653,159.425 C90.9215,162.227 90.4996,165.222 90.4996,168.409 M123.109,69.0969 C118.224,71.5032 114.385,74.9511 111.593,79.4407 C108.729,84.0657 107.297,89.0449 107.297,94.3782 C107.297,99.0657 108.468,105.383 110.812,113.331 C115.5,107.665 119.015,102.425 121.359,97.6126 C123.828,92.5292 125.062,87.2219 125.062,81.6907 C125.062,77.524 124.411,73.3261 123.109,69.0969"/>
<path class="" d="M209.859,405.91 C208.172,405.91 206.479,405.259 204.781,403.956 C203.156,402.717 202.343,400.894 202.343,398.488 C202.343,396.467 203.026,394.675 204.39,393.113 C205.692,391.55 207.416,390.769 209.562,390.769 C210.281,390.769 210.739,390.8 210.937,390.863 C207.937,387.029 203.932,385.045 198.922,384.91 C195.151,384.91 192.286,385.983 190.328,388.128 C189.682,388.983 189.099,390.352 188.578,392.238 C188.057,394.123 187.797,395.816 187.797,397.316 C187.661,398.358 187.593,400.441 187.593,403.566 L187.593,413.722 C187.593,416.847 187.661,418.962 187.797,420.066 C188.057,424.305 188.901,427.337 190.328,429.16 C192.349,431.368 195.213,432.472 198.922,432.472 C202.828,432.472 206.151,431.04 208.89,428.175 C211.682,425.373 213.635,421.759 214.75,417.331 C214.937,416.686 215.328,416.363 215.922,416.363 C216.765,416.363 217.187,416.753 217.187,417.535 C217.187,417.993 216.989,418.873 216.593,420.175 C215.687,423.102 213.901,426.191 211.234,429.441 C208.036,433.087 203.932,434.91 198.922,434.91 C195.994,434.91 193,434.488 189.937,433.644 C186.948,432.602 184.312,431.17 182.031,429.347 C179.489,427.326 177.505,424.592 176.078,421.144 C174.64,417.373 173.922,413.206 173.922,408.644 C173.922,400.696 176.073,394.378 180.375,389.691 C184.541,384.878 190.724,382.472 198.922,382.472 C204.265,382.472 208.5,384.295 211.625,387.941 C214.875,391.587 216.5,395.201 216.5,398.785 C216.5,400.868 215.849,402.561 214.547,403.863 C213.38,405.227 211.817,405.91 209.859,405.91"/>
<path class="" d="M209.859,143.409 C208.172,143.409 206.479,142.758 204.781,141.456 C203.156,140.217 202.343,138.394 202.343,135.988 C202.343,133.967 203.026,132.175 204.39,130.613 C205.692,129.05 207.416,128.269 209.562,128.269 C210.281,128.269 210.739,128.3 210.937,128.363 C207.937,124.529 203.932,122.545 198.922,122.409 C195.151,122.409 192.286,123.482 190.328,125.628 C189.682,126.482 189.099,127.852 188.578,129.738 C188.057,131.623 187.797,133.316 187.797,134.816 C187.661,135.857 187.593,137.941 187.593,141.066 L187.593,151.222 C187.593,154.347 187.661,156.462 187.797,157.566 C188.057,161.805 188.901,164.837 190.328,166.659 C192.349,168.868 195.213,169.972 198.922,169.972 C202.828,169.972 206.151,168.54 208.89,165.675 C211.682,162.873 213.635,159.258 214.75,154.831 C214.937,154.185 215.328,153.863 215.922,153.863 C216.765,153.863 217.187,154.253 217.187,155.034 C217.187,155.493 216.989,156.373 216.593,157.675 C215.687,160.602 213.901,163.691 211.234,166.941 C208.036,170.587 203.932,172.409 198.922,172.409 C195.994,172.409 193,171.988 189.937,171.144 C186.948,170.102 184.312,168.67 182.031,166.847 C179.489,164.826 177.505,162.092 176.078,158.644 C174.64,154.873 173.922,150.706 173.922,146.144 C173.922,138.196 176.073,131.878 180.375,127.191 C184.541,122.378 190.724,119.972 198.922,119.972 C204.265,119.972 208.5,121.795 211.625,125.441 C214.875,129.087 216.5,132.701 216.5,136.284 C216.5,138.368 215.849,140.06 214.547,141.363 C213.38,142.727 211.817,143.409 209.859,143.409"/>
<path class="" fill-rule="evenodd" d="M47.5347,225.112 C47.5347,195.908 27.4204,167.521 27.4204,139.542 C27.4204,125.45 32.9061,111.767 49.8204,99.5135 C50.049,99.3603 50.1632,99.105 50.1632,98.9519 C50.1632,98.4924 48.9061,98.0839 47.9918,98.0839 C47.5347,98.0839 46.7347,98.135 46.1632,98.4924 C24.2204,114.218 16.9061,132.394 16.9061,150.774 C16.9061,180.387 38.3918,208.978 38.3918,237.366 C38.3918,251.457 32.9061,264.732 15.9918,276.985 L15.9918,277.394 L15.9918,277.802 C32.9061,290.056 38.3918,303.331 38.3918,317.422 C38.3918,345.809 16.9061,374.401 16.9061,404.014 C16.9061,422.394 24.2204,440.57 46.1632,456.295 C46.7347,456.653 47.5347,456.704 47.9918,456.704 C48.9061,456.704 50.1632,456.295 50.1632,455.836 C50.1632,455.683 50.049,455.427 49.8204,455.274 C32.9061,443.021 27.4204,429.338 27.4204,415.246 C27.4204,387.267 47.5347,358.88 47.5347,329.676 C47.5347,311.091 40.2204,293.323 18.7347,277.394 C40.2204,261.464 47.5347,243.697 47.5347,225.112"/>
</svg>
